<svg xmlns="http://www.w3.org/2000/svg" xmlns:xlink="http://www.w3.org/1999/xlink" width="500" zoomAndPan="magnify" viewBox="0 0 375 225" height="300" preserveAspectRatio="xMidYMid meet" version="1.0"><defs><filter x="0%" y="0%" width="100%" height="100%" id="cead20bf74"><feColorMatrix values="0 0 0 0 1 0 0 0 0 1 0 0 0 0 1 0 0 0 1 0" color-interpolation-filters="sRGB"/></filter><g/><mask id="89f501c676"><g filter="url(#cead20bf74)"><rect x="-37.5" width="450" fill="#000000" y="-22.5" height="270" fill-opacity="0.25"/></g></mask><clipPath id="4543c1a13e"><path d="M 11 16 L 67 16 L 67 60 L 11 60 Z M 11 16 " clip-rule="nonzero"/></clipPath><clipPath id="f4a1a8976f"><path d="M 76.996094 49.679688 L 20.144531 72.964844 L -0.144531 23.421875 L 56.707031 0.140625 Z M 76.996094 49.679688 " clip-rule="nonzero"/></clipPath><clipPath id="893a9b18ea"><path d="M 76.996094 49.679688 L 20.144531 72.964844 L -0.144531 23.421875 L 56.707031 0.140625 Z M 76.996094 49.679688 " clip-rule="nonzero"/></clipPath><clipPath id="9ab2932ba5"><path d="M 76.996094 49.679688 L 20.144531 72.964844 L -0.144531 23.421875 L 56.707031 0.140625 Z M 76.996094 49.679688 " clip-rule="nonzero"/></clipPath><clipPath id="15b7fb88ed"><rect x="0" width="78" y="0" height="74"/></clipPath><clipPath id="e703c760b3"><path d="M 17 79 L 84.746094 79 L 84.746094 146.460938 L 17 146.460938 Z M 17 79 " clip-rule="nonzero"/></clipPath><clipPath id="91e0b4eb2d"><path d="M 53 73.179688 L 70 73.179688 L 70 101 L 53 101 Z M 53 73.179688 " clip-rule="nonzero"/></clipPath></defs><g mask="url(#89f501c676)"><g transform="matrix(1, 0, 0, 1, 0, 78)"><g clip-path="url(#15b7fb88ed)"><g clip-path="url(#4543c1a13e)"><g clip-path="url(#f4a1a8976f)"><g clip-path="url(#893a9b18ea)"><g clip-path="url(#9ab2932ba5)"><path fill="#76cccf" d="M 32.0625 57.585938 C 21.660156 53.8125 2.082031 28.75 16.964844 18.9375 C 27.027344 12.292969 28.628906 22.929688 42.433594 31.257812 C 47.003906 34.011719 69.367188 31.160156 66.085938 45.34375 C 64.136719 53.75 45.667969 62.511719 32.0625 57.585938 Z M 32.0625 57.585938 " fill-opacity="1" fill-rule="nonzero"/></g></g></g></g></g></g></g><g clip-path="url(#e703c760b3)"><path fill="#7f44f8" d="M 71.019531 85.644531 C 70.929688 85.574219 70.824219 85.542969 70.710938 85.558594 C 70.59375 85.574219 70.5 85.628906 70.433594 85.722656 C 70.363281 85.816406 70.335938 85.921875 70.355469 86.035156 C 70.375 86.152344 70.429688 86.242188 70.527344 86.308594 C 78.800781 92.472656 83.613281 101.949219 83.738281 112.316406 C 83.78125 115.753906 83.296875 119.117188 82.289062 122.40625 C 81.652344 123.21875 81.019531 124.03125 80.363281 124.832031 C 79.625 125.75 78.839844 126.625 78.007812 127.460938 C 77.820312 127.648438 77.628906 127.828125 77.433594 128 C 77.335938 128.085938 77.242188 128.167969 77.144531 128.246094 L 77.007812 128.355469 L 76.953125 128.402344 C 76.996094 128.367188 76.9375 128.402344 76.925781 128.421875 C 76.453125 128.78125 75.941406 129.09375 75.453125 129.433594 C 74.921875 129.785156 74.441406 130.199219 74.015625 130.671875 C 73.605469 131.152344 73.316406 131.695312 73.148438 132.304688 C 72.992188 132.890625 72.957031 133.488281 73.046875 134.089844 C 73.136719 134.691406 73.34375 135.25 73.664062 135.769531 C 73.75 135.898438 73.84375 136.023438 73.941406 136.144531 C 72.425781 137.644531 70.78125 138.988281 69.003906 140.167969 C 67.226562 141.347656 65.355469 142.34375 63.382812 143.152344 C 61.410156 143.964844 59.378906 144.578125 57.289062 144.988281 C 55.195312 145.402344 53.085938 145.609375 50.953125 145.605469 L 50.894531 145.605469 C 48.789062 145.613281 46.699219 145.421875 44.628906 145.023438 C 42.558594 144.625 40.546875 144.035156 38.589844 143.246094 C 36.632812 142.460938 34.773438 141.492188 33.003906 140.34375 C 31.234375 139.199219 29.59375 137.890625 28.078125 136.425781 C 28.582031 135.539062 28.847656 134.589844 28.867188 133.570312 C 28.890625 132.554688 28.664062 131.589844 28.195312 130.6875 C 27.734375 129.804688 27.011719 129.144531 26.324219 128.449219 C 26.152344 128.277344 25.996094 128.105469 25.847656 127.933594 L 25.742188 127.808594 L 25.730469 127.792969 C 25.71875 127.777344 25.703125 127.753906 25.691406 127.738281 C 25.621094 127.648438 25.558594 127.554688 25.5 127.457031 C 25.445312 127.371094 25.394531 127.277344 25.347656 127.183594 L 25.3125 127.105469 C 25.289062 127.050781 25.273438 126.996094 25.253906 126.941406 C 25.21875 126.84375 25.195312 126.742188 25.175781 126.636719 C 25.175781 126.617188 25.164062 126.589844 25.164062 126.566406 L 25.164062 126.546875 C 25.164062 126.488281 25.164062 126.433594 25.152344 126.375 C 25.152344 126.285156 25.152344 126.203125 25.164062 126.109375 C 25.164062 126.109375 25.164062 126.117188 25.164062 126.121094 C 25.171875 126.097656 25.175781 126.074219 25.175781 126.050781 C 25.175781 126.003906 25.195312 125.957031 25.207031 125.910156 C 25.226562 125.824219 25.25 125.742188 25.28125 125.660156 C 25.296875 125.613281 25.3125 125.570312 25.328125 125.527344 L 25.355469 125.46875 C 25.515625 125.121094 25.714844 124.796875 25.949219 124.492188 C 25.964844 124.46875 25.980469 124.449219 25.996094 124.429688 L 26.078125 124.324219 L 26.277344 124.082031 C 26.402344 123.925781 26.53125 123.773438 26.65625 123.617188 C 26.925781 123.296875 27.171875 122.957031 27.394531 122.605469 C 27.832031 121.875 28.054688 121.003906 27.785156 120.171875 C 27.464844 119.199219 26.617188 118.496094 25.71875 118.0625 C 24.65625 117.570312 23.535156 117.296875 22.363281 117.238281 C 21.171875 117.167969 20.007812 117.300781 18.867188 117.644531 C 18.714844 117.691406 18.570312 117.742188 18.425781 117.792969 C 18.183594 116.1875 18.054688 114.574219 18.042969 112.949219 C 18.011719 109.089844 18.636719 105.339844 19.925781 101.703125 C 20.113281 101.195312 20.40625 100.757812 20.800781 100.394531 C 21.199219 100.027344 21.660156 99.777344 22.183594 99.636719 C 23.574219 99.246094 24.621094 99.242188 25.125 99.636719 C 25.402344 99.847656 25.539062 100.191406 25.539062 100.691406 C 25.539062 102.320312 24.792969 103.882812 23.996094 105.535156 C 23.203125 107.191406 22.378906 108.921875 22.378906 110.738281 C 22.378906 111.726562 22.476562 112.777344 23.1875 113.074219 C 24.160156 113.476562 25.523438 112.335938 29.394531 108.460938 C 31.636719 106.21875 33.800781 105.71875 35.542969 105.308594 C 37.53125 104.84375 39.246094 104.449219 39.832031 101.683594 C 40.359375 99.175781 39.449219 96.761719 38.648438 94.628906 C 37.875 92.570312 37.144531 90.640625 37.804688 88.972656 C 38.527344 87.132812 39.328125 86.367188 40.011719 85.859375 C 40.371094 85.601562 40.675781 85.292969 40.9375 84.9375 C 41.195312 84.582031 41.390625 84.191406 41.527344 83.773438 C 41.660156 83.355469 41.726562 82.925781 41.726562 82.484375 C 41.722656 82.042969 41.652344 81.613281 41.511719 81.195312 C 44.335938 80.359375 47.21875 79.90625 50.164062 79.84375 L 50.175781 79.84375 C 50.515625 79.84375 50.84375 79.835938 51.175781 79.84375 C 51.292969 79.84375 51.390625 79.804688 51.46875 79.722656 C 51.550781 79.640625 51.589844 79.542969 51.589844 79.429688 C 51.589844 79.316406 51.550781 79.21875 51.46875 79.136719 C 51.390625 79.054688 51.292969 79.015625 51.175781 79.015625 L 50.808594 79.015625 C 48.503906 79.015625 46.226562 79.25 43.96875 79.722656 C 41.710938 80.191406 39.527344 80.886719 37.414062 81.808594 C 35.300781 82.726562 33.300781 83.851562 31.417969 85.183594 C 29.535156 86.511719 27.804688 88.019531 26.230469 89.707031 C 26.152344 89.789062 26.113281 89.890625 26.117188 90.003906 C 26.121094 90.121094 26.164062 90.21875 26.25 90.296875 C 26.332031 90.375 26.433594 90.414062 26.550781 90.410156 C 26.664062 90.402344 26.761719 90.359375 26.839844 90.273438 C 28.738281 88.234375 30.863281 86.464844 33.210938 84.96875 C 35.5625 83.472656 38.0625 82.292969 40.710938 81.433594 C 40.824219 81.769531 40.882812 82.113281 40.886719 82.46875 C 40.890625 82.824219 40.835938 83.167969 40.726562 83.507812 C 40.621094 83.84375 40.460938 84.15625 40.253906 84.441406 C 40.046875 84.730469 39.796875 84.976562 39.511719 85.183594 C 38.730469 85.761719 37.828125 86.625 37.023438 88.660156 C 36.25 90.625 37.035156 92.710938 37.867188 94.914062 C 38.664062 97.035156 39.492188 99.230469 39.011719 101.503906 C 38.539062 103.746094 37.335938 104.027344 35.347656 104.488281 C 33.503906 104.921875 31.207031 105.453125 28.804688 107.863281 C 26.9375 109.730469 24.121094 112.550781 23.492188 112.296875 C 23.445312 112.277344 23.199219 112.105469 23.199219 110.730469 C 23.199219 109.101562 23.945312 107.539062 24.742188 105.886719 C 25.535156 104.230469 26.359375 102.5 26.359375 100.683594 C 26.359375 99.917969 26.109375 99.339844 25.621094 98.96875 C 24.882812 98.40625 23.648438 98.363281 21.949219 98.835938 C 21.300781 99.015625 20.730469 99.335938 20.234375 99.792969 C 19.738281 100.25 19.378906 100.796875 19.148438 101.433594 C 18.921875 102.066406 18.71875 102.707031 18.527344 103.351562 C 18.339844 103.996094 18.171875 104.648438 18.023438 105.300781 C 17.875 105.957031 17.746094 106.617188 17.636719 107.28125 C 17.527344 107.945312 17.4375 108.609375 17.371094 109.277344 C 17.300781 109.949219 17.25 110.617188 17.222656 111.289062 C 17.191406 111.960938 17.183594 112.632812 17.195312 113.304688 C 17.203125 113.976562 17.234375 114.648438 17.285156 115.320312 C 17.335938 115.988281 17.410156 116.65625 17.5 117.324219 C 17.589844 117.988281 17.699219 118.652344 17.832031 119.3125 C 17.960938 119.972656 18.113281 120.625 18.28125 121.277344 C 18.453125 121.925781 18.640625 122.570312 18.847656 123.210938 C 19.058594 123.851562 19.285156 124.480469 19.53125 125.109375 C 19.777344 125.734375 20.042969 126.351562 20.324219 126.960938 C 20.609375 127.570312 20.910156 128.171875 21.226562 128.761719 C 21.546875 129.351562 21.882812 129.933594 22.238281 130.507812 C 22.589844 131.078125 22.960938 131.636719 23.347656 132.1875 C 23.738281 132.734375 24.140625 133.273438 24.558594 133.796875 C 24.980469 134.324219 25.414062 134.835938 25.863281 135.332031 C 26.3125 135.832031 26.777344 136.316406 27.257812 136.789062 C 27.738281 137.261719 28.230469 137.714844 28.734375 138.15625 C 29.242188 138.597656 29.761719 139.023438 30.292969 139.433594 C 30.824219 139.84375 31.367188 140.238281 31.925781 140.617188 C 32.480469 140.996094 33.046875 141.355469 33.625 141.699219 C 34.199219 142.042969 34.785156 142.371094 35.382812 142.679688 C 35.980469 142.988281 36.585938 143.277344 37.199219 143.550781 C 37.8125 143.820312 38.433594 144.074219 39.0625 144.3125 C 39.691406 144.546875 40.328125 144.761719 40.96875 144.957031 C 41.613281 145.15625 42.257812 145.332031 42.910156 145.492188 C 43.566406 145.648438 44.222656 145.789062 44.882812 145.90625 C 45.542969 146.023438 46.207031 146.125 46.875 146.203125 C 47.539062 146.28125 48.210938 146.339844 48.878906 146.378906 C 49.550781 146.417969 50.222656 146.4375 50.890625 146.4375 L 50.953125 146.4375 C 52.0625 146.433594 53.171875 146.378906 54.273438 146.265625 C 55.378906 146.152344 56.476562 145.988281 57.566406 145.769531 C 58.652344 145.546875 59.726562 145.273438 60.789062 144.949219 C 61.851562 144.621094 62.894531 144.242188 63.917969 143.8125 C 64.941406 143.382812 65.941406 142.902344 66.917969 142.375 C 67.894531 141.84375 68.84375 141.269531 69.761719 140.648438 C 70.683594 140.023438 71.570312 139.355469 72.421875 138.644531 C 73.277344 137.933594 74.09375 137.183594 74.871094 136.394531 C 75.652344 135.601562 76.390625 134.773438 77.089844 133.910156 C 77.785156 133.042969 78.441406 132.148438 79.050781 131.21875 C 79.660156 130.289062 80.21875 129.332031 80.734375 128.34375 C 81.25 127.359375 81.714844 126.351562 82.128906 125.320312 C 82.542969 124.289062 82.90625 123.242188 83.21875 122.171875 C 83.53125 121.105469 83.789062 120.027344 83.992188 118.933594 C 84.199219 117.839844 84.347656 116.742188 84.445312 115.632812 C 84.539062 114.527344 84.582031 113.417969 84.570312 112.304688 C 84.441406 101.679688 79.503906 91.960938 71.019531 85.644531 Z M 18.566406 118.632812 C 19.007812 118.46875 19.457031 118.339844 19.914062 118.246094 C 20.050781 118.21875 20.1875 118.191406 20.324219 118.167969 L 20.539062 118.136719 L 20.550781 118.136719 L 20.703125 118.117188 C 20.976562 118.089844 21.257812 118.070312 21.535156 118.0625 C 21.8125 118.054688 22.117188 118.0625 22.40625 118.082031 C 22.546875 118.089844 22.683594 118.101562 22.820312 118.117188 L 22.980469 118.136719 L 23.050781 118.148438 L 23.160156 118.164062 C 23.71875 118.25 24.265625 118.386719 24.800781 118.574219 L 24.96875 118.640625 L 25.054688 118.675781 C 25.167969 118.722656 25.277344 118.773438 25.386719 118.828125 C 25.59375 118.933594 25.792969 119.050781 25.984375 119.183594 C 26.027344 119.214844 26.078125 119.246094 26.121094 119.28125 L 26.191406 119.339844 C 26.289062 119.417969 26.378906 119.5 26.464844 119.589844 C 26.535156 119.65625 26.601562 119.730469 26.664062 119.808594 C 26.652344 119.796875 26.644531 119.789062 26.664062 119.824219 L 26.714844 119.898438 C 26.746094 119.945312 26.777344 119.996094 26.808594 120.046875 C 26.839844 120.097656 26.867188 120.148438 26.890625 120.199219 C 26.902344 120.21875 26.910156 120.234375 26.917969 120.253906 C 26.917969 120.257812 26.917969 120.261719 26.917969 120.269531 C 26.96875 120.371094 27.003906 120.484375 27.019531 120.597656 C 27.03125 120.640625 27.042969 120.6875 27.046875 120.734375 L 27.046875 120.757812 C 27.046875 120.777344 27.046875 120.800781 27.046875 120.824219 C 27.050781 120.917969 27.050781 121.007812 27.046875 121.101562 C 27.046875 121.140625 27.011719 121.300781 27.046875 121.15625 C 27.039062 121.195312 27.035156 121.238281 27.023438 121.273438 C 27.015625 121.367188 27 121.457031 26.976562 121.546875 C 26.953125 121.625 26.925781 121.695312 26.898438 121.769531 L 26.871094 121.828125 L 26.804688 121.957031 C 26.71875 122.125 26.621094 122.285156 26.511719 122.441406 C 26.464844 122.515625 26.414062 122.585938 26.359375 122.660156 C 26.332031 122.699219 26.304688 122.734375 26.273438 122.769531 C 26.257812 122.789062 26.246094 122.8125 26.226562 122.832031 C 25.984375 123.140625 25.730469 123.4375 25.488281 123.742188 C 24.996094 124.355469 24.5 125.035156 24.363281 125.828125 C 24.277344 126.285156 24.304688 126.738281 24.449219 127.183594 C 24.617188 127.648438 24.863281 128.066406 25.183594 128.4375 C 25.484375 128.789062 25.800781 129.125 26.136719 129.445312 C 26.308594 129.617188 26.46875 129.773438 26.628906 129.945312 C 26.703125 130.023438 26.773438 130.101562 26.84375 130.183594 L 26.960938 130.320312 L 27 130.371094 L 27.027344 130.40625 C 27.171875 130.597656 27.300781 130.796875 27.414062 131.007812 C 27.46875 131.101562 27.519531 131.203125 27.566406 131.300781 C 27.589844 131.355469 27.613281 131.40625 27.636719 131.457031 L 27.683594 131.578125 C 27.765625 131.800781 27.835938 132.03125 27.890625 132.261719 C 27.914062 132.371094 27.9375 132.480469 27.957031 132.589844 C 27.957031 132.644531 27.980469 132.699219 27.984375 132.761719 C 27.984375 132.804688 27.992188 132.847656 27.996094 132.890625 C 28.019531 133.121094 28.03125 133.355469 28.023438 133.585938 C 28.023438 133.703125 28.015625 133.820312 28.007812 133.929688 C 28.007812 133.992188 27.996094 134.054688 27.988281 134.121094 C 27.988281 134.121094 27.988281 134.164062 27.988281 134.175781 C 27.988281 134.1875 27.988281 134.210938 27.980469 134.230469 C 27.941406 134.460938 27.890625 134.691406 27.828125 134.914062 C 27.792969 135.027344 27.757812 135.136719 27.71875 135.246094 L 27.648438 135.417969 L 27.605469 135.523438 C 27.558594 135.621094 27.511719 135.714844 27.457031 135.808594 C 25.144531 133.460938 23.226562 130.824219 21.710938 127.898438 C 20.195312 124.96875 19.148438 121.878906 18.566406 118.632812 Z M 73.863281 132.933594 Z M 74.097656 134.8125 L 74.109375 134.84375 C 74.101562 134.832031 74.097656 134.820312 74.097656 134.808594 Z M 74.527344 135.558594 L 74.472656 135.480469 C 74.433594 135.425781 74.394531 135.371094 74.359375 135.308594 C 74.285156 135.195312 74.222656 135.074219 74.160156 134.953125 L 74.117188 134.855469 C 74.089844 134.785156 74.0625 134.714844 74.039062 134.648438 C 73.996094 134.519531 73.957031 134.386719 73.925781 134.253906 C 73.910156 134.195312 73.898438 134.132812 73.886719 134.070312 C 73.886719 134.035156 73.875 134 73.871094 133.964844 C 73.867188 133.929688 73.871094 133.9375 73.871094 133.929688 C 73.855469 133.796875 73.847656 133.660156 73.84375 133.523438 C 73.839844 133.382812 73.84375 133.25 73.855469 133.113281 C 73.855469 133.078125 73.855469 133.039062 73.867188 133.003906 L 73.867188 132.988281 C 73.890625 132.917969 73.902344 132.847656 73.90625 132.773438 C 73.933594 132.636719 73.964844 132.507812 74.003906 132.375 C 74.023438 132.316406 74.046875 132.257812 74.066406 132.203125 C 74.089844 132.152344 74.09375 132.136719 74.105469 132.101562 C 74.117188 132.066406 74.09375 132.128906 74.09375 132.128906 C 74.101562 132.109375 74.109375 132.089844 74.121094 132.070312 C 74.175781 131.945312 74.238281 131.828125 74.308594 131.710938 C 74.34375 131.652344 74.382812 131.59375 74.417969 131.539062 L 74.476562 131.457031 L 74.519531 131.398438 C 74.699219 131.167969 74.902344 130.957031 75.125 130.761719 C 75.234375 130.664062 75.351562 130.570312 75.464844 130.476562 L 75.492188 130.460938 L 75.585938 130.386719 L 75.769531 130.253906 C 76.257812 129.914062 76.769531 129.589844 77.253906 129.238281 C 77.667969 128.933594 78.058594 128.601562 78.429688 128.242188 C 79.246094 127.449219 80.011719 126.609375 80.734375 125.726562 C 80.984375 125.421875 81.230469 125.117188 81.476562 124.8125 C 79.871094 128.855469 77.554688 132.433594 74.527344 135.554688 Z M 74.527344 135.558594 " fill-opacity="1" fill-rule="nonzero"/></g><path fill="#7f44f8" d="M 49.71875 105.382812 C 49.964844 106.144531 50.4375 106.726562 51.132812 107.121094 C 51.925781 107.539062 52.746094 107.613281 53.597656 107.34375 C 54.398438 107.097656 55.109375 106.699219 55.738281 106.144531 C 55.878906 106.292969 56.023438 106.441406 56.171875 106.582031 C 56.808594 107.203125 57.558594 107.613281 58.425781 107.808594 C 59.378906 108 60.34375 107.898438 61.300781 107.832031 C 62.171875 107.757812 63.035156 107.792969 63.890625 107.941406 C 65.550781 108.257812 67.09375 109.035156 68.199219 110.324219 C 68.730469 110.933594 69.125 111.625 69.382812 112.390625 C 69.640625 113.160156 69.742188 113.945312 69.683594 114.753906 C 69.652344 115.125 69.578125 115.484375 69.46875 115.839844 C 69.363281 116.183594 69.226562 116.515625 69.054688 116.828125 C 68.699219 117.496094 68.246094 118.085938 67.695312 118.601562 C 67.144531 119.136719 66.53125 119.59375 65.859375 119.972656 C 65.144531 120.382812 64.394531 120.703125 63.605469 120.941406 C 61.746094 121.519531 59.800781 121.730469 57.871094 121.957031 C 56.066406 122.167969 54.253906 122.398438 52.511719 122.933594 C 50.847656 123.445312 49.25 124.230469 47.988281 125.449219 C 46.671875 126.71875 45.816406 128.382812 44.46875 129.625 C 43.878906 130.195312 43.191406 130.601562 42.410156 130.851562 C 42.03125 130.964844 41.644531 131.003906 41.246094 130.964844 C 41.214844 130.964844 41.179688 130.960938 41.144531 130.953125 L 41.003906 130.925781 C 40.902344 130.90625 40.804688 130.875 40.707031 130.839844 C 40.554688 130.777344 40.421875 130.6875 40.296875 130.578125 C 40.238281 130.523438 40.1875 130.460938 40.144531 130.390625 C 40.105469 130.324219 40.066406 130.253906 40.035156 130.179688 C 40 130.085938 39.96875 129.988281 39.949219 129.890625 C 39.929688 129.8125 39.917969 129.730469 39.910156 129.648438 C 39.894531 129.449219 39.894531 129.25 39.910156 129.046875 C 39.910156 129.003906 39.921875 128.960938 39.925781 128.917969 C 39.925781 128.90625 39.925781 128.863281 39.9375 128.847656 C 39.953125 128.761719 39.96875 128.675781 39.988281 128.585938 C 40.027344 128.414062 40.074219 128.242188 40.132812 128.074219 C 40.160156 127.992188 40.191406 127.902344 40.226562 127.828125 C 40.226562 127.820312 40.226562 127.808594 40.226562 127.800781 L 40.238281 127.777344 C 40.257812 127.734375 40.273438 127.691406 40.296875 127.648438 C 40.445312 127.328125 40.621094 127.019531 40.820312 126.726562 C 40.917969 126.574219 41.023438 126.425781 41.132812 126.28125 C 41.222656 126.160156 41.304688 126.050781 41.433594 125.898438 C 41.667969 125.609375 41.910156 125.328125 42.160156 125.042969 C 42.660156 124.476562 43.167969 123.917969 43.632812 123.328125 C 44.6875 122.066406 45.328125 120.625 45.554688 119 C 45.8125 117.339844 45.734375 115.660156 45.671875 113.992188 C 45.636719 113.15625 45.609375 112.324219 45.625 111.492188 C 45.636719 111.082031 45.65625 110.671875 45.695312 110.265625 C 45.730469 109.882812 45.785156 109.507812 45.867188 109.132812 C 46.007812 108.382812 46.253906 107.667969 46.605469 106.988281 C 46.660156 106.886719 46.671875 106.785156 46.644531 106.675781 C 46.613281 106.5625 46.550781 106.480469 46.457031 106.417969 C 46.355469 106.363281 46.25 106.347656 46.140625 106.378906 C 46.03125 106.40625 45.945312 106.46875 45.886719 106.566406 C 45.085938 108.101562 44.835938 109.824219 44.800781 111.539062 C 44.769531 113.253906 44.933594 114.96875 44.914062 116.683594 C 44.917969 117.511719 44.847656 118.332031 44.707031 119.148438 C 44.566406 119.945312 44.304688 120.703125 43.929688 121.421875 C 43.207031 122.777344 42.121094 123.8125 41.117188 125 C 40.109375 126.183594 39.214844 127.492188 39.078125 129.082031 C 39.003906 129.992188 39.269531 130.980469 40.105469 131.460938 C 40.902344 131.917969 41.9375 131.871094 42.785156 131.59375 C 44.605469 131 45.8125 129.46875 46.917969 127.992188 C 47.460938 127.222656 48.070312 126.507812 48.75 125.855469 C 49.394531 125.285156 50.101562 124.8125 50.875 124.441406 C 52.417969 123.683594 54.191406 123.285156 55.914062 123.027344 C 57.910156 122.726562 59.925781 122.597656 61.910156 122.207031 C 63.703125 121.855469 65.46875 121.273438 66.988281 120.230469 C 68.355469 119.296875 69.5 118.042969 70.113281 116.492188 C 70.757812 114.847656 70.613281 113.019531 69.882812 111.429688 C 69.5 110.621094 68.984375 109.902344 68.34375 109.273438 C 67.699219 108.648438 66.96875 108.152344 66.152344 107.789062 C 65.289062 107.402344 64.390625 107.152344 63.457031 107.035156 C 62.523438 106.914062 61.601562 106.976562 60.664062 107.042969 C 60.175781 107.085938 59.683594 107.097656 59.195312 107.074219 C 58.972656 107.0625 58.753906 107.03125 58.539062 106.984375 C 58.433594 106.960938 58.332031 106.933594 58.230469 106.902344 L 58.058594 106.839844 L 57.941406 106.792969 C 57.328125 106.5 56.796875 106.09375 56.351562 105.578125 C 56.875 105.0625 57.367188 104.515625 57.867188 104 C 58.441406 103.371094 59.105469 102.855469 59.855469 102.457031 C 59.953125 102.398438 60.015625 102.3125 60.046875 102.203125 C 60.074219 102.09375 60.0625 101.988281 60.003906 101.890625 C 59.945312 101.792969 59.859375 101.730469 59.75 101.699219 C 59.640625 101.671875 59.535156 101.683594 59.4375 101.738281 C 57.945312 102.480469 56.96875 103.84375 55.800781 104.980469 C 55.363281 104.449219 54.878906 103.964844 54.339844 103.535156 C 53.71875 103.070312 53.019531 102.796875 52.25 102.703125 C 51.488281 102.585938 50.816406 102.789062 50.242188 103.304688 C 49.964844 103.574219 49.78125 103.894531 49.6875 104.269531 C 49.59375 104.640625 49.605469 105.011719 49.71875 105.382812 Z M 50.847656 105.789062 C 50.8125 105.75 50.839844 105.78125 50.847656 105.789062 Z M 50.53125 104.304688 Z M 50.460938 104.582031 C 50.460938 104.605469 50.460938 104.605469 50.460938 104.582031 Z M 50.460938 104.625 C 50.460938 104.609375 50.460938 104.59375 50.460938 104.578125 C 50.472656 104.503906 50.488281 104.433594 50.511719 104.363281 C 50.511719 104.34375 50.527344 104.324219 50.535156 104.300781 C 50.542969 104.277344 50.570312 104.226562 50.589844 104.191406 L 50.652344 104.089844 L 50.691406 104.035156 C 50.738281 103.972656 50.792969 103.917969 50.847656 103.863281 C 50.867188 103.847656 50.890625 103.828125 50.910156 103.8125 L 50.960938 103.773438 C 51.027344 103.730469 51.097656 103.6875 51.171875 103.652344 C 51.1875 103.652344 51.21875 103.632812 51.226562 103.628906 L 51.300781 103.605469 C 51.378906 103.578125 51.460938 103.558594 51.542969 103.539062 L 51.621094 103.527344 L 51.683594 103.527344 C 51.769531 103.519531 51.855469 103.515625 51.941406 103.519531 C 52.015625 103.519531 52.09375 103.519531 52.167969 103.53125 L 52.238281 103.53125 L 52.363281 103.550781 C 52.535156 103.585938 52.699219 103.628906 52.863281 103.683594 C 52.933594 103.707031 53.003906 103.734375 53.074219 103.761719 L 53.15625 103.800781 L 53.285156 103.859375 C 53.441406 103.9375 53.59375 104.023438 53.738281 104.121094 C 53.800781 104.164062 53.859375 104.207031 53.921875 104.25 L 53.988281 104.304688 L 54.089844 104.390625 C 54.238281 104.527344 54.382812 104.667969 54.519531 104.8125 C 54.746094 105.046875 54.964844 105.289062 55.179688 105.53125 C 54.667969 105.976562 54.089844 106.308594 53.445312 106.523438 C 53.0625 106.644531 52.671875 106.6875 52.273438 106.652344 L 52.226562 106.652344 L 52.113281 106.632812 C 52.019531 106.609375 51.933594 106.585938 51.847656 106.550781 L 51.78125 106.527344 L 51.691406 106.488281 C 51.609375 106.445312 51.527344 106.402344 51.449219 106.351562 C 51.386719 106.3125 51.324219 106.269531 51.265625 106.222656 C 51.25 106.210938 51.207031 106.171875 51.195312 106.167969 C 51.160156 106.136719 51.125 106.105469 51.09375 106.074219 C 51.035156 106.019531 50.976562 105.960938 50.921875 105.902344 C 50.894531 105.867188 50.867188 105.835938 50.839844 105.800781 L 50.792969 105.738281 C 50.75 105.671875 50.707031 105.609375 50.667969 105.542969 C 50.648438 105.5 50.625 105.460938 50.605469 105.421875 C 50.605469 105.410156 50.582031 105.363281 50.570312 105.347656 C 50.515625 105.210938 50.476562 105.066406 50.453125 104.921875 C 50.453125 104.90625 50.453125 104.882812 50.453125 104.867188 C 50.453125 104.851562 50.453125 104.796875 50.453125 104.757812 C 50.453125 104.722656 50.453125 104.664062 50.457031 104.625 Z M 50.460938 104.625 " fill-opacity="1" fill-rule="nonzero"/><path fill="#7f44f8" d="M 65.320312 138.785156 C 65.425781 138.785156 65.535156 138.785156 65.640625 138.785156 C 65.730469 138.78125 65.816406 138.789062 65.902344 138.800781 L 65.929688 138.800781 L 65.984375 138.8125 C 66.042969 138.824219 66.097656 138.839844 66.15625 138.855469 C 66.203125 138.867188 66.246094 138.878906 66.289062 138.898438 L 66.304688 138.898438 L 66.339844 138.914062 C 66.378906 138.929688 66.417969 138.953125 66.457031 138.976562 L 66.511719 139.011719 C 66.546875 139.039062 66.578125 139.070312 66.605469 139.101562 L 66.640625 139.136719 C 66.664062 139.171875 66.683594 139.207031 66.703125 139.242188 C 66.722656 139.277344 66.722656 139.277344 66.734375 139.296875 C 66.734375 139.300781 66.734375 139.304688 66.734375 139.308594 C 66.765625 139.417969 66.832031 139.503906 66.933594 139.558594 C 67.03125 139.613281 67.136719 139.628906 67.246094 139.601562 C 67.355469 139.566406 67.441406 139.503906 67.496094 139.402344 C 67.554688 139.300781 67.566406 139.195312 67.535156 139.085938 C 67.359375 138.597656 67.027344 138.265625 66.539062 138.089844 C 66.113281 137.941406 65.671875 137.890625 65.222656 137.941406 C 64.765625 138 64.3125 138.085938 63.871094 138.210938 C 63.761719 138.234375 63.652344 138.257812 63.542969 138.277344 C 63.492188 138.285156 63.4375 138.296875 63.382812 138.304688 L 63.316406 138.3125 L 63.261719 138.3125 C 63.042969 138.347656 62.820312 138.359375 62.597656 138.351562 L 62.527344 138.351562 C 62.476562 138.34375 62.429688 138.332031 62.382812 138.320312 C 62.332031 138.308594 62.285156 138.292969 62.242188 138.273438 L 62.214844 138.265625 L 62.195312 138.265625 L 62.15625 138.242188 C 62.113281 138.21875 62.074219 138.191406 62.035156 138.167969 L 61.988281 138.128906 C 61.953125 138.097656 61.921875 138.058594 61.886719 138.023438 L 61.828125 137.933594 C 61.808594 137.902344 61.792969 137.867188 61.773438 137.832031 L 61.773438 137.820312 C 61.75 137.757812 61.730469 137.695312 61.710938 137.628906 C 61.675781 137.5 61.648438 137.367188 61.625 137.234375 C 61.589844 136.976562 61.535156 136.722656 61.453125 136.472656 C 61.109375 135.554688 60.480469 134.910156 59.570312 134.542969 C 58.660156 134.148438 57.71875 134.066406 56.753906 134.300781 C 55.65625 134.570312 54.6875 135.199219 53.839844 135.941406 C 53.03125 136.660156 52.355469 137.5 51.640625 138.308594 C 51.289062 138.710938 50.910156 139.089844 50.507812 139.441406 L 50.363281 139.5625 L 50.289062 139.625 L 50.269531 139.636719 C 50.160156 139.71875 50.046875 139.808594 49.929688 139.875 C 49.703125 140.023438 49.464844 140.148438 49.21875 140.257812 L 49.207031 140.257812 L 49.179688 140.265625 L 49.082031 140.304688 L 48.859375 140.382812 C 48.71875 140.429688 48.574219 140.46875 48.429688 140.503906 C 48.132812 140.578125 47.832031 140.632812 47.53125 140.675781 C 46.945312 140.753906 46.363281 140.863281 45.789062 141.003906 C 44.824219 141.265625 43.835938 141.796875 43.316406 142.683594 C 43.1875 142.90625 43.089844 143.140625 43.035156 143.390625 C 43.003906 143.503906 43.015625 143.609375 43.074219 143.707031 C 43.128906 143.808594 43.214844 143.871094 43.324219 143.902344 C 43.433594 143.933594 43.539062 143.921875 43.636719 143.863281 C 43.738281 143.808594 43.804688 143.722656 43.832031 143.613281 C 43.855469 143.515625 43.886719 143.421875 43.921875 143.324219 C 43.921875 143.335938 43.957031 143.238281 43.96875 143.21875 C 44 143.160156 44.03125 143.101562 44.066406 143.046875 C 44.09375 143 44.125 142.957031 44.15625 142.910156 L 44.210938 142.84375 C 44.289062 142.757812 44.367188 142.675781 44.453125 142.597656 C 44.496094 142.558594 44.539062 142.523438 44.578125 142.488281 L 44.613281 142.460938 L 44.65625 142.429688 C 44.753906 142.359375 44.855469 142.296875 44.957031 142.234375 C 45.0625 142.175781 45.160156 142.125 45.261719 142.074219 L 45.40625 142.011719 L 45.433594 141.996094 L 45.546875 141.953125 C 46.601562 141.558594 47.753906 141.550781 48.832031 141.25 C 49.390625 141.101562 49.910156 140.867188 50.390625 140.546875 C 50.84375 140.242188 51.257812 139.890625 51.640625 139.5 C 52.378906 138.753906 53.011719 137.914062 53.75 137.160156 C 53.9375 136.964844 54.128906 136.777344 54.332031 136.59375 C 54.421875 136.511719 54.515625 136.433594 54.609375 136.355469 L 54.757812 136.230469 L 54.832031 136.171875 L 54.851562 136.15625 L 54.871094 136.144531 C 55.289062 135.820312 55.738281 135.550781 56.214844 135.332031 L 56.261719 135.316406 L 56.324219 135.289062 L 56.496094 135.222656 C 56.621094 135.179688 56.75 135.140625 56.878906 135.109375 C 57.007812 135.074219 57.101562 135.054688 57.21875 135.03125 C 57.242188 135.03125 57.410156 134.992188 57.292969 135.019531 C 57.355469 135.007812 57.417969 135 57.480469 135 C 57.6875 134.984375 57.894531 134.984375 58.105469 135 L 58.261719 135.015625 L 58.273438 135.015625 L 58.335938 135.023438 C 58.453125 135.046875 58.5625 135.066406 58.679688 135.097656 C 58.796875 135.125 58.878906 135.152344 58.976562 135.1875 L 59.125 135.238281 L 59.179688 135.261719 L 59.191406 135.261719 L 59.210938 135.269531 C 59.402344 135.355469 59.582031 135.457031 59.757812 135.574219 L 59.855469 135.644531 L 59.9375 135.710938 C 60.019531 135.78125 60.101562 135.855469 60.175781 135.9375 C 60.210938 135.972656 60.242188 136.007812 60.273438 136.046875 L 60.3125 136.089844 C 60.371094 136.171875 60.425781 136.253906 60.476562 136.339844 C 60.519531 136.417969 60.558594 136.496094 60.59375 136.582031 C 60.59375 136.605469 60.625 136.660156 60.632812 136.675781 C 60.652344 136.734375 60.671875 136.792969 60.6875 136.847656 C 60.757812 137.109375 60.785156 137.382812 60.84375 137.644531 C 60.933594 138.203125 61.21875 138.628906 61.699219 138.925781 C 62.53125 139.390625 63.582031 139.167969 64.457031 138.933594 C 64.660156 138.871094 64.867188 138.828125 65.078125 138.804688 C 64.960938 138.8125 65.125 138.804688 65.152344 138.804688 Z M 50.289062 139.574219 Z M 61.742188 137.769531 C 61.730469 137.753906 61.742188 137.757812 61.742188 137.769531 Z M 62.191406 138.242188 L 62.230469 138.257812 C 62.230469 138.257812 62.207031 138.253906 62.191406 138.242188 Z M 62.546875 138.34375 L 62.582031 138.34375 C 62.570312 138.347656 62.558594 138.351562 62.546875 138.351562 Z M 62.546875 138.34375 " fill-opacity="1" fill-rule="nonzero"/><path fill="#7f44f8" d="M 26 124.433594 L 25.984375 124.453125 C 25.96875 124.464844 25.949219 124.511719 26 124.433594 Z M 26 124.433594 " fill-opacity="1" fill-rule="nonzero"/><path fill="#7f44f8" d="M 26.28125 122.773438 C 26.210938 122.851562 26.261719 122.796875 26.28125 122.773438 Z M 26.28125 122.773438 " fill-opacity="1" fill-rule="nonzero"/><path fill="#7f44f8" d="M 25.160156 126.101562 C 25.1875 126.007812 25.164062 126.066406 25.160156 126.101562 Z M 25.160156 126.101562 " fill-opacity="1" fill-rule="nonzero"/><path fill="#7f44f8" d="M 54.601562 79.070312 L 54.617188 79.042969 Z M 54.601562 79.070312 " fill-opacity="1" fill-rule="nonzero"/><g clip-path="url(#91e0b4eb2d)"><path fill="#7f44f8" d="M 56.785156 92.914062 C 58.027344 94.9375 59.34375 96.914062 60.578125 98.941406 C 60.753906 99.230469 60.929688 99.519531 61.105469 99.8125 C 61.144531 99.875 61.195312 99.925781 61.261719 99.960938 C 61.324219 99.996094 61.390625 100.011719 61.464844 100.011719 C 61.539062 100.011719 61.605469 99.996094 61.671875 99.960938 C 61.734375 99.925781 61.785156 99.875 61.824219 99.8125 C 63.046875 98.019531 64.15625 96.160156 65.152344 94.230469 C 65.628906 93.332031 66.097656 92.429688 66.570312 91.53125 C 67.066406 90.605469 67.546875 89.679688 67.941406 88.707031 C 68.75 86.746094 69.242188 84.707031 69.421875 82.59375 C 69.515625 81.589844 69.515625 80.585938 69.421875 79.578125 C 69.351562 78.726562 69.132812 77.914062 68.773438 77.140625 C 68.40625 76.394531 67.882812 75.785156 67.195312 75.316406 C 66.390625 74.777344 65.507812 74.464844 64.542969 74.371094 C 63.5625 74.261719 62.632812 74.4375 61.757812 74.898438 C 61.332031 75.136719 60.941406 75.421875 60.582031 75.753906 C 60.246094 76.054688 59.941406 76.378906 59.660156 76.734375 C 58.5 78.207031 57.839844 80.074219 58.066406 81.964844 C 58.289062 83.769531 59.246094 85.65625 60.929688 86.503906 C 61.71875 86.898438 62.691406 87.101562 63.539062 86.761719 C 64.511719 86.375 65.027344 85.464844 65.320312 84.5 C 65.609375 83.539062 65.710938 82.40625 65.367188 81.414062 C 65.210938 80.949219 64.964844 80.542969 64.621094 80.191406 C 64.28125 79.835938 63.878906 79.578125 63.421875 79.40625 C 62.980469 79.253906 62.535156 79.222656 62.078125 79.316406 C 61.96875 79.347656 61.886719 79.414062 61.828125 79.515625 C 61.773438 79.617188 61.757812 79.722656 61.789062 79.832031 C 61.824219 79.941406 61.890625 80.023438 61.988281 80.082031 C 62.089844 80.136719 62.195312 80.152344 62.304688 80.125 C 62.320312 80.125 62.414062 80.109375 62.40625 80.105469 L 62.527344 80.105469 C 62.617188 80.105469 62.707031 80.109375 62.796875 80.117188 L 62.898438 80.136719 C 62.949219 80.144531 62.996094 80.15625 63.042969 80.171875 L 63.167969 80.210938 L 63.277344 80.25 C 63.453125 80.328125 63.617188 80.425781 63.769531 80.539062 L 63.847656 80.605469 L 63.949219 80.691406 C 64.027344 80.769531 64.101562 80.847656 64.171875 80.929688 L 64.214844 80.988281 L 64.226562 81 C 64.25 81.035156 64.277344 81.070312 64.300781 81.109375 C 64.363281 81.199219 64.414062 81.292969 64.464844 81.390625 C 64.503906 81.46875 64.539062 81.546875 64.566406 81.628906 C 64.605469 81.746094 64.640625 81.867188 64.671875 81.988281 C 64.722656 82.195312 64.753906 82.410156 64.757812 82.625 C 64.765625 82.863281 64.753906 83.101562 64.726562 83.339844 C 64.726562 83.363281 64.726562 83.386719 64.726562 83.40625 C 64.726562 83.414062 64.726562 83.421875 64.726562 83.425781 C 64.71875 83.484375 64.707031 83.542969 64.695312 83.597656 C 64.675781 83.714844 64.652344 83.832031 64.621094 83.949219 C 64.566406 84.175781 64.5 84.398438 64.417969 84.617188 C 64.398438 84.671875 64.378906 84.722656 64.359375 84.777344 L 64.359375 84.785156 L 64.308594 84.855469 C 64.257812 84.964844 64.199219 85.070312 64.136719 85.171875 C 64.042969 85.351562 63.925781 85.507812 63.777344 85.644531 C 63.738281 85.683594 63.699219 85.71875 63.65625 85.753906 L 63.644531 85.753906 L 63.597656 85.789062 C 63.511719 85.847656 63.421875 85.902344 63.328125 85.945312 L 63.289062 85.964844 L 63.277344 85.964844 L 63.144531 86.011719 C 63.046875 86.039062 62.949219 86.058594 62.851562 86.074219 L 62.796875 86.074219 C 62.746094 86.074219 62.699219 86.074219 62.648438 86.074219 C 62.546875 86.078125 62.445312 86.074219 62.339844 86.066406 L 62.257812 86.054688 L 62.136719 86.03125 C 62.039062 86.011719 61.941406 85.988281 61.84375 85.960938 C 61.75 85.933594 61.652344 85.894531 61.554688 85.859375 L 61.535156 85.886719 L 61.488281 85.863281 C 61.441406 85.84375 61.394531 85.820312 61.347656 85.796875 C 61.164062 85.703125 60.984375 85.597656 60.816406 85.476562 L 60.730469 85.410156 L 60.632812 85.328125 C 60.550781 85.261719 60.476562 85.191406 60.40625 85.121094 C 60.253906 84.96875 60.117188 84.8125 59.984375 84.648438 L 59.972656 84.632812 L 59.925781 84.566406 L 59.832031 84.441406 C 59.773438 84.351562 59.71875 84.269531 59.660156 84.171875 C 59.550781 83.988281 59.449219 83.800781 59.363281 83.609375 L 59.304688 83.480469 L 59.269531 83.394531 C 59.230469 83.289062 59.191406 83.183594 59.15625 83.078125 C 59.085938 82.875 59.03125 82.667969 58.984375 82.460938 C 58.964844 82.363281 58.945312 82.261719 58.925781 82.164062 C 58.917969 82.109375 58.910156 82.058594 58.902344 82.003906 C 58.902344 81.96875 58.902344 81.933594 58.886719 81.898438 C 58.867188 81.6875 58.855469 81.472656 58.851562 81.257812 C 58.851562 81.042969 58.859375 80.832031 58.882812 80.617188 L 58.898438 80.480469 L 58.898438 80.46875 L 58.90625 80.390625 C 58.925781 80.285156 58.941406 80.175781 58.964844 80.074219 C 59.007812 79.859375 59.0625 79.652344 59.128906 79.445312 C 59.160156 79.347656 59.191406 79.253906 59.226562 79.160156 C 59.246094 79.105469 59.261719 79.058594 59.285156 79.007812 C 59.292969 78.980469 59.300781 78.957031 59.3125 78.933594 L 59.3125 78.898438 C 59.484375 78.5 59.6875 78.121094 59.929688 77.761719 C 59.984375 77.675781 60.042969 77.589844 60.101562 77.511719 C 60.132812 77.464844 60.164062 77.421875 60.195312 77.378906 L 60.214844 77.355469 L 60.269531 77.289062 C 60.40625 77.117188 60.546875 76.957031 60.699219 76.796875 C 60.847656 76.640625 60.996094 76.5 61.148438 76.359375 C 61.230469 76.285156 61.320312 76.214844 61.398438 76.144531 L 61.523438 76.042969 L 61.546875 76.027344 L 61.601562 75.988281 C 61.777344 75.851562 61.964844 75.734375 62.160156 75.625 C 62.25 75.578125 62.34375 75.53125 62.441406 75.488281 C 62.457031 75.488281 62.515625 75.457031 62.523438 75.453125 L 62.695312 75.390625 C 62.902344 75.324219 63.113281 75.269531 63.328125 75.234375 L 63.4375 75.21875 C 63.484375 75.210938 63.535156 75.207031 63.582031 75.203125 C 63.691406 75.191406 63.800781 75.1875 63.910156 75.1875 C 64.769531 75.167969 65.582031 75.363281 66.339844 75.769531 C 66.511719 75.863281 66.679688 75.964844 66.835938 76.078125 L 66.933594 76.148438 L 66.988281 76.195312 C 67.0625 76.257812 67.136719 76.324219 67.207031 76.390625 C 67.335938 76.511719 67.453125 76.640625 67.5625 76.777344 C 67.578125 76.792969 67.589844 76.808594 67.601562 76.828125 C 67.625 76.859375 67.652344 76.890625 67.671875 76.921875 C 67.726562 77 67.78125 77.082031 67.832031 77.160156 C 67.925781 77.316406 68.011719 77.476562 68.089844 77.640625 C 68.109375 77.679688 68.125 77.722656 68.144531 77.765625 C 68.152344 77.777344 68.15625 77.792969 68.164062 77.804688 C 68.199219 77.898438 68.234375 77.988281 68.265625 78.082031 C 68.386719 78.445312 68.480469 78.816406 68.539062 79.195312 C 68.539062 79.238281 68.550781 79.28125 68.558594 79.324219 C 68.558594 79.339844 68.558594 79.355469 68.558594 79.371094 C 68.558594 79.378906 68.558594 79.386719 68.558594 79.398438 C 68.570312 79.496094 68.582031 79.597656 68.589844 79.695312 C 68.613281 79.917969 68.625 80.144531 68.632812 80.367188 C 68.652344 80.863281 68.652344 81.359375 68.632812 81.855469 C 68.59375 82.828125 68.476562 83.792969 68.277344 84.746094 C 68.078125 85.722656 67.8125 86.679688 67.472656 87.617188 C 67.144531 88.53125 66.753906 89.417969 66.296875 90.273438 C 65.851562 91.113281 65.402344 91.953125 64.960938 92.792969 C 64.019531 94.597656 63.054688 96.394531 61.957031 98.109375 C 61.800781 98.355469 61.636719 98.605469 61.472656 98.847656 C 60.328125 96.960938 59.125 95.113281 57.953125 93.246094 C 57.421875 92.402344 56.898438 91.546875 56.410156 90.675781 C 56.183594 90.265625 55.960938 89.84375 55.753906 89.421875 C 55.652344 89.21875 55.554688 89.011719 55.460938 88.804688 L 55.335938 88.527344 L 55.269531 88.371094 L 55.253906 88.34375 C 55.253906 88.332031 55.222656 88.261719 55.21875 88.253906 C 54.878906 87.429688 54.609375 86.582031 54.402344 85.714844 C 54.296875 85.269531 54.210938 84.816406 54.144531 84.359375 L 54.121094 84.214844 C 54.121094 84.214844 54.109375 84.125 54.105469 84.101562 C 54.089844 83.976562 54.078125 83.851562 54.0625 83.726562 C 54.039062 83.484375 54.019531 83.242188 54.003906 82.996094 C 53.96875 82.5 53.96875 82.003906 54.003906 81.503906 C 54.003906 81.386719 54.027344 81.273438 54.039062 81.160156 C 54.039062 81.140625 54.054688 81.058594 54.039062 81.144531 L 54.050781 81.070312 C 54.058594 81 54.074219 80.925781 54.085938 80.851562 C 54.128906 80.609375 54.183594 80.371094 54.246094 80.136719 C 54.3125 79.898438 54.386719 79.664062 54.46875 79.433594 C 54.511719 79.316406 54.558594 79.203125 54.601562 79.089844 C 54.609375 79.082031 54.613281 79.074219 54.617188 79.0625 C 54.625 79.046875 54.628906 79.027344 54.640625 79.011719 C 54.667969 78.949219 54.695312 78.886719 54.722656 78.824219 C 54.933594 78.378906 55.175781 77.953125 55.453125 77.542969 C 55.523438 77.441406 55.59375 77.339844 55.667969 77.242188 L 55.714844 77.183594 L 55.75 77.132812 C 55.765625 77.117188 55.785156 77.089844 55.785156 77.089844 L 55.851562 77.003906 C 56.011719 76.8125 56.171875 76.628906 56.339844 76.449219 C 56.511719 76.277344 56.683594 76.105469 56.871094 75.933594 C 56.964844 75.851562 57.058594 75.773438 57.152344 75.695312 L 57.28125 75.589844 L 57.332031 75.550781 L 57.386719 75.507812 C 57.78125 75.210938 58.195312 74.953125 58.632812 74.726562 C 58.742188 74.671875 58.851562 74.617188 58.964844 74.566406 L 59.132812 74.492188 L 59.15625 74.492188 L 59.238281 74.457031 C 59.464844 74.363281 59.699219 74.285156 59.933594 74.214844 C 60.167969 74.140625 60.410156 74.085938 60.652344 74.042969 C 60.761719 74.011719 60.847656 73.945312 60.902344 73.84375 C 60.960938 73.746094 60.972656 73.640625 60.941406 73.527344 C 60.910156 73.417969 60.84375 73.335938 60.742188 73.277344 C 60.644531 73.222656 60.539062 73.210938 60.425781 73.238281 C 59.414062 73.453125 58.46875 73.832031 57.585938 74.375 C 56.707031 74.917969 55.941406 75.59375 55.289062 76.398438 C 53.976562 78.007812 53.15625 80.023438 53.144531 82.117188 C 53.144531 84.066406 53.484375 85.957031 54.15625 87.785156 C 54.824219 89.578125 55.773438 91.273438 56.785156 92.914062 Z M 64.207031 80.972656 Z M 64.207031 80.972656 " fill-opacity="1" fill-rule="nonzero"/></g><g fill="#7f44f8" fill-opacity="1"><g transform="translate(109.39334, 109.459218)"><g><path d="M 20.714844 -1.527344 L 20.714844 -12.441406 L 15.671875 -12.441406 L 15.671875 -4.96875 C 15.222656 -4.898438 14.734375 -4.832031 14.285156 -4.832031 C 4.691406 -4.832031 4.238281 -19.671875 14.285156 -20.019531 C 16.925781 -20.085938 18.523438 -19.53125 19.496094 -19.113281 L 20.085938 -24.152344 C 19.636719 -24.292969 17.238281 -25.160156 14.285156 -25.058594 C -2.953125 -24.429688 -2.121094 0.140625 14.285156 0.140625 C 16.648438 0.140625 18.800781 -0.453125 20.714844 -1.527344 Z M 20.714844 -1.527344 "/></g></g></g><g fill="#7f44f8" fill-opacity="1"><g transform="translate(132.780224, 109.459218)"><g><path d="M 20.609375 -8.652344 L 20.609375 -24.847656 L 15.671875 -24.847656 L 15.671875 -8.6875 C 15.671875 -3.476562 7.609375 -3.476562 7.609375 -8.6875 L 7.609375 -24.847656 L 2.640625 -24.847656 L 2.640625 -8.652344 C 2.640625 3.164062 20.609375 3.164062 20.609375 -8.652344 Z M 20.609375 -8.652344 "/></g></g></g><g fill="#7f44f8" fill-opacity="1"><g transform="translate(156.097618, 109.459218)"><g><path d="M 7.75 0 L 7.75 -24.847656 L 2.78125 -24.847656 L 2.78125 0 Z M 7.75 0 "/></g></g></g><g fill="#7f44f8" fill-opacity="1"><g transform="translate(166.661684, 109.459218)"><g><path d="M 7.75 -13.519531 L 20.332031 0.519531 L 21.652344 0.519531 L 21.652344 -24.8125 L 16.648438 -24.8125 L 16.648438 -10.773438 L 4.101562 -25.371094 L 2.78125 -25.371094 L 2.78125 0 L 7.75 0 Z M 7.75 -13.519531 "/></g></g></g><g fill="#7f44f8" fill-opacity="1"><g transform="translate(191.125829, 109.459218)"><g><path d="M 11.851562 0 L 11.851562 -19.878906 L 18.035156 -19.878906 L 18.035156 -24.8125 L 0.695312 -24.8125 L 0.695312 -19.878906 L 6.882812 -19.878906 L 6.882812 0 Z M 11.851562 0 "/></g></g></g><g fill="#7f44f8" fill-opacity="1"><g transform="translate(210.134193, 109.459218)"><g><path d="M 7.75 0 L 7.75 -24.847656 L 2.78125 -24.847656 L 2.78125 0 Z M 7.75 0 "/></g></g></g><g fill="#7f44f8" fill-opacity="1"><g transform="translate(220.69826, 109.459218)"><g/></g></g><g fill="#7f44f8" fill-opacity="1"><g transform="translate(230.567316, 109.459218)"><g><path d="M 11.851562 0 L 11.851562 -19.878906 L 18.035156 -19.878906 L 18.035156 -24.8125 L 0.695312 -24.8125 L 0.695312 -19.878906 L 6.882812 -19.878906 L 6.882812 0 Z M 11.851562 0 "/></g></g></g><g fill="#7f44f8" fill-opacity="1"><g transform="translate(249.575679, 109.459218)"><g><path d="M 15.152344 0 L 20.78125 0 L 15.011719 -10.253906 C 22.3125 -12.371094 21.441406 -24.847656 12.582031 -24.847656 L 2.78125 -24.847656 L 2.78125 0 L 7.75 0 L 7.75 -9.488281 L 10.148438 -9.488281 Z M 7.75 -14.320312 L 7.75 -19.878906 L 12.128906 -19.878906 C 15.5 -19.878906 15.5 -14.320312 12.128906 -14.320312 Z M 7.75 -14.320312 "/></g></g></g><g fill="#7f44f8" fill-opacity="1"><g transform="translate(270.877562, 109.459218)"><g><path d="M 0.554688 0 L 6.1875 0 L 7.160156 -2.675781 L 15.394531 -2.675781 L 16.402344 0 L 22 0 L 11.539062 -25.753906 L 11.015625 -25.753906 Z M 8.964844 -7.332031 L 11.292969 -13.796875 L 13.554688 -7.332031 Z M 8.964844 -7.332031 "/></g></g></g><g fill="#7f44f8" fill-opacity="1"><g transform="translate(293.56945, 109.459218)"><g><path d="M 10.496094 0.519531 L 11.609375 0.519531 L 21.894531 -24.847656 L 16.160156 -24.847656 L 12.824219 -16.402344 L 11.050781 -11.433594 L 9.246094 -16.578125 L 5.941406 -24.847656 L 0.207031 -24.847656 Z M 10.496094 0.519531 "/></g></g></g><g fill="#7f44f8" fill-opacity="1"><g transform="translate(315.705339, 109.459218)"><g><path d="M 15.640625 0 L 15.640625 -4.96875 L 7.75 -4.96875 L 7.75 -9.941406 L 14.285156 -9.941406 L 14.285156 -14.910156 L 7.75 -14.910156 L 7.75 -19.878906 L 15.222656 -19.878906 L 15.222656 -24.847656 L 2.78125 -24.847656 L 2.78125 0 Z M 15.640625 0 "/></g></g></g><g fill="#7f44f8" fill-opacity="1"><g transform="translate(333.219437, 109.459218)"><g><path d="M 2.78125 -24.847656 L 2.78125 0 L 15.640625 0 L 15.640625 -4.96875 L 7.75 -4.96875 L 7.75 -24.847656 Z M 2.78125 -24.847656 "/></g></g></g><g fill="#7f44f8" fill-opacity="1"><g transform="translate(161.366451, 138.599416)"><g><path d="M 5.515625 0.34375 C 5.242188 0.34375 5.019531 0.265625 4.84375 0.109375 C 4.664062 -0.0351562 4.539062 -0.21875 4.46875 -0.4375 L 0.53125 -11.03125 C 0.488281 -11.101562 0.457031 -11.179688 0.4375 -11.265625 C 0.375 -11.421875 0.34375 -11.570312 0.34375 -11.71875 C 0.34375 -11.894531 0.40625 -12.054688 0.53125 -12.203125 C 0.65625 -12.347656 0.828125 -12.421875 1.046875 -12.421875 C 1.222656 -12.421875 1.367188 -12.363281 1.484375 -12.25 C 1.597656 -12.144531 1.6875 -12.03125 1.75 -11.90625 L 5.484375 -1.75 L 5.546875 -1.75 L 9.28125 -11.90625 C 9.332031 -12.03125 9.414062 -12.144531 9.53125 -12.25 C 9.65625 -12.363281 9.800781 -12.421875 9.96875 -12.421875 C 10.195312 -12.421875 10.367188 -12.347656 10.484375 -12.203125 C 10.609375 -12.054688 10.671875 -11.894531 10.671875 -11.71875 C 10.671875 -11.65625 10.660156 -11.582031 10.640625 -11.5 C 10.628906 -11.414062 10.613281 -11.335938 10.59375 -11.265625 C 10.550781 -11.179688 10.519531 -11.101562 10.5 -11.03125 L 6.5625 -0.4375 C 6.476562 -0.21875 6.347656 -0.0351562 6.171875 0.109375 C 6.003906 0.265625 5.785156 0.34375 5.515625 0.34375 Z M 5.515625 0.34375 "/></g></g></g><g fill="#7f44f8" fill-opacity="1"><g transform="translate(173.925042, 138.599416)"><g><path d="M 2.09375 0.09375 C 1.875 0.09375 1.703125 0.0195312 1.578125 -0.125 C 1.460938 -0.269531 1.40625 -0.429688 1.40625 -0.609375 L 1.40625 -7.875 C 1.40625 -8.050781 1.460938 -8.210938 1.578125 -8.359375 C 1.703125 -8.503906 1.875 -8.578125 2.09375 -8.578125 C 2.320312 -8.578125 2.492188 -8.503906 2.609375 -8.359375 C 2.734375 -8.210938 2.796875 -8.050781 2.796875 -7.875 L 2.796875 -0.609375 C 2.796875 -0.429688 2.734375 -0.269531 2.609375 -0.125 C 2.492188 0.0195312 2.320312 0.09375 2.09375 0.09375 Z M 2.09375 -10.59375 C 1.832031 -10.59375 1.617188 -10.679688 1.453125 -10.859375 C 1.296875 -11.035156 1.21875 -11.238281 1.21875 -11.46875 C 1.21875 -11.6875 1.296875 -11.882812 1.453125 -12.0625 C 1.617188 -12.25 1.832031 -12.34375 2.09375 -12.34375 C 2.363281 -12.34375 2.578125 -12.25 2.734375 -12.0625 C 2.890625 -11.882812 2.96875 -11.6875 2.96875 -11.46875 C 2.96875 -11.238281 2.890625 -11.035156 2.734375 -10.859375 C 2.578125 -10.679688 2.363281 -10.59375 2.09375 -10.59375 Z M 2.09375 -10.59375 "/></g></g></g><g fill="#7f44f8" fill-opacity="1"><g transform="translate(179.662655, 138.599416)"><g><path d="M 4.109375 0.265625 C 3.628906 0.265625 3.195312 0.195312 2.8125 0.0625 C 2.425781 -0.0625 2.085938 -0.21875 1.796875 -0.40625 C 1.515625 -0.601562 1.28125 -0.8125 1.09375 -1.03125 C 0.914062 -1.25 0.785156 -1.457031 0.703125 -1.65625 C 0.679688 -1.695312 0.660156 -1.738281 0.640625 -1.78125 C 0.617188 -1.875 0.609375 -1.976562 0.609375 -2.09375 C 0.609375 -2.269531 0.664062 -2.414062 0.78125 -2.53125 C 0.90625 -2.65625 1.050781 -2.71875 1.21875 -2.71875 C 1.394531 -2.71875 1.53125 -2.671875 1.625 -2.578125 C 1.71875 -2.492188 1.816406 -2.363281 1.921875 -2.1875 C 2.023438 -2.007812 2.140625 -1.84375 2.265625 -1.6875 C 2.398438 -1.539062 2.550781 -1.414062 2.71875 -1.3125 C 2.882812 -1.207031 3.082031 -1.125 3.3125 -1.0625 C 3.539062 -1 3.804688 -0.96875 4.109375 -0.96875 C 4.460938 -0.96875 4.769531 -1.003906 5.03125 -1.078125 C 5.289062 -1.160156 5.507812 -1.265625 5.6875 -1.390625 C 5.863281 -1.515625 5.992188 -1.65625 6.078125 -1.8125 C 6.171875 -1.96875 6.21875 -2.125 6.21875 -2.28125 C 6.21875 -2.613281 6.082031 -2.867188 5.8125 -3.046875 C 5.539062 -3.222656 5.203125 -3.367188 4.796875 -3.484375 C 4.398438 -3.597656 3.96875 -3.707031 3.5 -3.8125 C 3.03125 -3.914062 2.59375 -4.054688 2.1875 -4.234375 C 1.789062 -4.421875 1.457031 -4.664062 1.1875 -4.96875 C 0.914062 -5.269531 0.78125 -5.6875 0.78125 -6.21875 C 0.78125 -6.539062 0.851562 -6.851562 1 -7.15625 C 1.144531 -7.457031 1.351562 -7.726562 1.625 -7.96875 C 1.90625 -8.207031 2.238281 -8.394531 2.625 -8.53125 C 3.019531 -8.675781 3.457031 -8.75 3.9375 -8.75 C 4.414062 -8.75 4.847656 -8.691406 5.234375 -8.578125 C 5.617188 -8.460938 5.953125 -8.316406 6.234375 -8.140625 C 6.515625 -7.972656 6.738281 -7.789062 6.90625 -7.59375 C 7.070312 -7.40625 7.191406 -7.238281 7.265625 -7.09375 C 7.273438 -7.0625 7.285156 -7.023438 7.296875 -6.984375 C 7.304688 -6.953125 7.316406 -6.914062 7.328125 -6.875 C 7.335938 -6.832031 7.34375 -6.785156 7.34375 -6.734375 C 7.34375 -6.554688 7.285156 -6.410156 7.171875 -6.296875 C 7.054688 -6.179688 6.910156 -6.125 6.734375 -6.125 C 6.554688 -6.125 6.425781 -6.164062 6.34375 -6.25 C 6.257812 -6.332031 6.15625 -6.4375 6.03125 -6.5625 C 5.8125 -6.832031 5.550781 -7.0625 5.25 -7.25 C 4.945312 -7.4375 4.507812 -7.53125 3.9375 -7.53125 C 3.363281 -7.53125 2.925781 -7.394531 2.625 -7.125 C 2.332031 -6.863281 2.1875 -6.5625 2.1875 -6.21875 C 2.1875 -5.882812 2.320312 -5.632812 2.59375 -5.46875 C 2.863281 -5.300781 3.195312 -5.160156 3.59375 -5.046875 C 4 -4.929688 4.429688 -4.820312 4.890625 -4.71875 C 5.359375 -4.625 5.796875 -4.484375 6.203125 -4.296875 C 6.609375 -4.117188 6.941406 -3.867188 7.203125 -3.546875 C 7.472656 -3.234375 7.609375 -2.8125 7.609375 -2.28125 C 7.609375 -1.96875 7.53125 -1.660156 7.375 -1.359375 C 7.21875 -1.054688 6.988281 -0.785156 6.6875 -0.546875 C 6.382812 -0.304688 6.015625 -0.113281 5.578125 0.03125 C 5.148438 0.1875 4.660156 0.265625 4.109375 0.265625 Z M 4.109375 0.265625 "/></g></g></g><g fill="#7f44f8" fill-opacity="1"><g transform="translate(189.510345, 138.599416)"><g><path d="M 2.09375 0.09375 C 1.875 0.09375 1.703125 0.0195312 1.578125 -0.125 C 1.460938 -0.269531 1.40625 -0.429688 1.40625 -0.609375 L 1.40625 -7.875 C 1.40625 -8.050781 1.460938 -8.210938 1.578125 -8.359375 C 1.703125 -8.503906 1.875 -8.578125 2.09375 -8.578125 C 2.320312 -8.578125 2.492188 -8.503906 2.609375 -8.359375 C 2.734375 -8.210938 2.796875 -8.050781 2.796875 -7.875 L 2.796875 -0.609375 C 2.796875 -0.429688 2.734375 -0.269531 2.609375 -0.125 C 2.492188 0.0195312 2.320312 0.09375 2.09375 0.09375 Z M 2.09375 -10.59375 C 1.832031 -10.59375 1.617188 -10.679688 1.453125 -10.859375 C 1.296875 -11.035156 1.21875 -11.238281 1.21875 -11.46875 C 1.21875 -11.6875 1.296875 -11.882812 1.453125 -12.0625 C 1.617188 -12.25 1.832031 -12.34375 2.09375 -12.34375 C 2.363281 -12.34375 2.578125 -12.25 2.734375 -12.0625 C 2.890625 -11.882812 2.96875 -11.6875 2.96875 -11.46875 C 2.96875 -11.238281 2.890625 -11.035156 2.734375 -10.859375 C 2.578125 -10.679688 2.363281 -10.59375 2.09375 -10.59375 Z M 2.09375 -10.59375 "/></g></g></g><g fill="#7f44f8" fill-opacity="1"><g transform="translate(195.247958, 138.599416)"><g><path d="M 4.546875 0 C 4.148438 0 3.785156 -0.0664062 3.453125 -0.203125 C 3.117188 -0.335938 2.832031 -0.523438 2.59375 -0.765625 C 2.351562 -1.003906 2.164062 -1.289062 2.03125 -1.625 C 1.90625 -1.957031 1.84375 -2.320312 1.84375 -2.71875 L 1.84375 -7.171875 L 0.96875 -7.171875 C 0.789062 -7.171875 0.640625 -7.226562 0.515625 -7.34375 C 0.398438 -7.46875 0.34375 -7.613281 0.34375 -7.78125 C 0.34375 -7.957031 0.398438 -8.101562 0.515625 -8.21875 C 0.640625 -8.34375 0.789062 -8.40625 0.96875 -8.40625 L 1.84375 -8.40625 L 1.84375 -10.0625 C 1.84375 -10.238281 1.898438 -10.398438 2.015625 -10.546875 C 2.140625 -10.691406 2.3125 -10.765625 2.53125 -10.765625 C 2.757812 -10.765625 2.929688 -10.691406 3.046875 -10.546875 C 3.171875 -10.398438 3.234375 -10.238281 3.234375 -10.0625 L 3.234375 -8.40625 L 5.6875 -8.40625 C 5.863281 -8.40625 6.007812 -8.34375 6.125 -8.21875 C 6.238281 -8.101562 6.296875 -7.957031 6.296875 -7.78125 C 6.296875 -7.613281 6.238281 -7.46875 6.125 -7.34375 C 6.007812 -7.226562 5.863281 -7.171875 5.6875 -7.171875 L 3.234375 -7.171875 L 3.234375 -2.71875 C 3.234375 -2.226562 3.351562 -1.851562 3.59375 -1.59375 C 3.832031 -1.34375 4.148438 -1.21875 4.546875 -1.21875 L 6.125 -1.21875 C 6.300781 -1.21875 6.445312 -1.160156 6.5625 -1.046875 C 6.675781 -0.929688 6.734375 -0.785156 6.734375 -0.609375 C 6.734375 -0.429688 6.675781 -0.285156 6.5625 -0.171875 C 6.445312 -0.0546875 6.300781 0 6.125 0 Z M 4.546875 0 "/></g></g></g><g fill="#7f44f8" fill-opacity="1"><g transform="translate(203.696472, 138.599416)"><g/></g></g><g fill="#7f44f8" fill-opacity="1"><g transform="translate(209.434086, 138.599416)"><g><path d="M 0.96875 0.171875 C 0.738281 0.171875 0.5625 0.0976562 0.4375 -0.046875 C 0.320312 -0.191406 0.265625 -0.351562 0.265625 -0.53125 C 0.265625 -0.59375 0.273438 -0.671875 0.296875 -0.765625 C 0.304688 -0.816406 0.320312 -0.851562 0.34375 -0.875 L 4.546875 -11.640625 C 4.691406 -11.984375 4.835938 -12.226562 4.984375 -12.375 C 5.128906 -12.519531 5.332031 -12.59375 5.59375 -12.59375 C 5.863281 -12.59375 6.070312 -12.519531 6.21875 -12.375 C 6.363281 -12.226562 6.507812 -11.984375 6.65625 -11.640625 L 10.84375 -0.875 C 10.863281 -0.851562 10.878906 -0.816406 10.890625 -0.765625 C 10.898438 -0.734375 10.910156 -0.695312 10.921875 -0.65625 C 10.929688 -0.613281 10.9375 -0.570312 10.9375 -0.53125 C 10.9375 -0.351562 10.875 -0.191406 10.75 -0.046875 C 10.625 0.0976562 10.453125 0.171875 10.234375 0.171875 C 10.054688 0.171875 9.914062 0.125 9.8125 0.03125 C 9.707031 -0.0625 9.613281 -0.21875 9.53125 -0.4375 L 8.484375 -3.234375 L 2.71875 -3.234375 L 1.65625 -0.4375 C 1.582031 -0.21875 1.488281 -0.0625 1.375 0.03125 C 1.269531 0.125 1.132812 0.171875 0.96875 0.171875 Z M 7.96875 -4.46875 L 5.640625 -10.671875 L 5.5625 -10.671875 L 3.234375 -4.46875 Z M 7.96875 -4.46875 "/></g></g></g><g fill="#7f44f8" fill-opacity="1"><g transform="translate(222.167573, 138.599416)"><g><path d="M 2.09375 0.09375 C 1.875 0.09375 1.703125 0.0195312 1.578125 -0.125 C 1.460938 -0.269531 1.40625 -0.429688 1.40625 -0.609375 L 1.40625 -7.875 C 1.40625 -8.050781 1.460938 -8.210938 1.578125 -8.359375 C 1.703125 -8.503906 1.875 -8.578125 2.09375 -8.578125 C 2.320312 -8.578125 2.492188 -8.503906 2.609375 -8.359375 C 2.734375 -8.210938 2.796875 -8.050781 2.796875 -7.875 L 2.796875 -7.703125 L 2.890625 -7.703125 C 3.003906 -7.898438 3.160156 -8.070312 3.359375 -8.21875 C 3.523438 -8.351562 3.734375 -8.472656 3.984375 -8.578125 C 4.242188 -8.691406 4.550781 -8.75 4.90625 -8.75 L 5.6875 -8.75 C 5.863281 -8.75 6.007812 -8.691406 6.125 -8.578125 C 6.238281 -8.460938 6.296875 -8.316406 6.296875 -8.140625 C 6.296875 -7.960938 6.238281 -7.816406 6.125 -7.703125 C 6.007812 -7.585938 5.863281 -7.53125 5.6875 -7.53125 L 4.71875 -7.53125 C 4.457031 -7.53125 4.207031 -7.472656 3.96875 -7.359375 C 3.738281 -7.253906 3.535156 -7.109375 3.359375 -6.921875 C 3.179688 -6.742188 3.039062 -6.523438 2.9375 -6.265625 C 2.84375 -6.003906 2.796875 -5.722656 2.796875 -5.421875 L 2.796875 -0.609375 C 2.796875 -0.429688 2.734375 -0.269531 2.609375 -0.125 C 2.492188 0.0195312 2.320312 0.09375 2.09375 0.09375 Z M 2.09375 0.09375 "/></g></g></g><g fill="#7f44f8" fill-opacity="1"><g transform="translate(230.003947, 138.599416)"><g><path d="M 4.8125 3.84375 C 4.289062 3.84375 3.816406 3.769531 3.390625 3.625 C 2.972656 3.476562 2.613281 3.304688 2.3125 3.109375 C 2.019531 2.910156 1.796875 2.703125 1.640625 2.484375 C 1.484375 2.265625 1.40625 2.078125 1.40625 1.921875 C 1.40625 1.742188 1.460938 1.597656 1.578125 1.484375 C 1.691406 1.367188 1.835938 1.3125 2.015625 1.3125 C 2.191406 1.3125 2.347656 1.378906 2.484375 1.515625 C 2.617188 1.648438 2.78125 1.800781 2.96875 1.96875 C 3.164062 2.132812 3.40625 2.285156 3.6875 2.421875 C 3.976562 2.554688 4.351562 2.625 4.8125 2.625 C 5.476562 2.625 6.007812 2.429688 6.40625 2.046875 C 6.800781 1.660156 7 1.179688 7 0.609375 L 7 -1.140625 L 6.90625 -1.140625 C 6.738281 -0.941406 6.539062 -0.765625 6.3125 -0.609375 C 6.113281 -0.484375 5.867188 -0.363281 5.578125 -0.25 C 5.285156 -0.144531 4.941406 -0.09375 4.546875 -0.09375 C 4.066406 -0.09375 3.613281 -0.179688 3.1875 -0.359375 C 2.769531 -0.535156 2.398438 -0.78125 2.078125 -1.09375 C 1.765625 -1.414062 1.515625 -1.78125 1.328125 -2.1875 C 1.140625 -2.601562 1.046875 -3.039062 1.046875 -3.5 L 1.046875 -5.34375 C 1.046875 -5.789062 1.140625 -6.222656 1.328125 -6.640625 C 1.515625 -7.054688 1.765625 -7.421875 2.078125 -7.734375 C 2.398438 -8.046875 2.769531 -8.289062 3.1875 -8.46875 C 3.613281 -8.65625 4.066406 -8.75 4.546875 -8.75 C 4.941406 -8.75 5.285156 -8.691406 5.578125 -8.578125 C 5.867188 -8.472656 6.113281 -8.351562 6.3125 -8.21875 C 6.539062 -8.070312 6.738281 -7.898438 6.90625 -7.703125 L 7 -7.703125 L 7 -7.875 C 7 -8.050781 7.0625 -8.210938 7.1875 -8.359375 C 7.3125 -8.503906 7.484375 -8.578125 7.703125 -8.578125 C 7.921875 -8.578125 8.09375 -8.503906 8.21875 -8.359375 C 8.34375 -8.210938 8.40625 -8.050781 8.40625 -7.875 L 8.40625 0.609375 C 8.40625 1.054688 8.316406 1.472656 8.140625 1.859375 C 7.960938 2.253906 7.710938 2.597656 7.390625 2.890625 C 7.066406 3.179688 6.6875 3.410156 6.25 3.578125 C 5.8125 3.753906 5.332031 3.84375 4.8125 3.84375 Z M 4.71875 -1.3125 C 5.050781 -1.3125 5.359375 -1.363281 5.640625 -1.46875 C 5.921875 -1.582031 6.160156 -1.738281 6.359375 -1.9375 C 6.554688 -2.132812 6.710938 -2.367188 6.828125 -2.640625 C 6.941406 -2.910156 7 -3.195312 7 -3.5 L 7 -5.34375 C 7 -5.644531 6.941406 -5.925781 6.828125 -6.1875 C 6.710938 -6.457031 6.554688 -6.691406 6.359375 -6.890625 C 6.160156 -7.085938 5.921875 -7.242188 5.640625 -7.359375 C 5.359375 -7.472656 5.050781 -7.53125 4.71875 -7.53125 C 4.394531 -7.53125 4.09375 -7.472656 3.8125 -7.359375 C 3.53125 -7.242188 3.289062 -7.085938 3.09375 -6.890625 C 2.894531 -6.691406 2.738281 -6.457031 2.625 -6.1875 C 2.507812 -5.925781 2.453125 -5.644531 2.453125 -5.34375 L 2.453125 -3.5 C 2.453125 -3.195312 2.507812 -2.910156 2.625 -2.640625 C 2.738281 -2.367188 2.894531 -2.132812 3.09375 -1.9375 C 3.289062 -1.738281 3.53125 -1.582031 3.8125 -1.46875 C 4.09375 -1.363281 4.394531 -1.3125 4.71875 -1.3125 Z M 4.71875 -1.3125 "/></g></g></g><g fill="#7f44f8" fill-opacity="1"><g transform="translate(241.33826, 138.599416)"><g><path d="M 4.8125 0.265625 C 4.257812 0.265625 3.753906 0.175781 3.296875 0 C 2.835938 -0.1875 2.441406 -0.4375 2.109375 -0.75 C 1.773438 -1.0625 1.515625 -1.425781 1.328125 -1.84375 C 1.140625 -2.257812 1.046875 -2.695312 1.046875 -3.15625 L 1.046875 -5.34375 C 1.046875 -5.789062 1.140625 -6.222656 1.328125 -6.640625 C 1.515625 -7.054688 1.773438 -7.421875 2.109375 -7.734375 C 2.441406 -8.046875 2.835938 -8.289062 3.296875 -8.46875 C 3.753906 -8.65625 4.257812 -8.75 4.8125 -8.75 C 5.363281 -8.75 5.867188 -8.65625 6.328125 -8.46875 C 6.785156 -8.289062 7.179688 -8.046875 7.515625 -7.734375 C 7.847656 -7.421875 8.109375 -7.054688 8.296875 -6.640625 C 8.484375 -6.222656 8.578125 -5.789062 8.578125 -5.34375 L 8.578125 -4.375 C 8.578125 -4.195312 8.515625 -4.035156 8.390625 -3.890625 C 8.265625 -3.742188 8.09375 -3.671875 7.875 -3.671875 L 2.453125 -3.671875 L 2.453125 -3.15625 C 2.453125 -2.84375 2.507812 -2.550781 2.625 -2.28125 C 2.738281 -2.019531 2.894531 -1.789062 3.09375 -1.59375 C 3.300781 -1.394531 3.550781 -1.238281 3.84375 -1.125 C 4.132812 -1.019531 4.457031 -0.96875 4.8125 -0.96875 C 5.332031 -0.96875 5.742188 -1.03125 6.046875 -1.15625 C 6.359375 -1.289062 6.609375 -1.441406 6.796875 -1.609375 C 6.992188 -1.785156 7.15625 -1.941406 7.28125 -2.078125 C 7.414062 -2.210938 7.582031 -2.28125 7.78125 -2.28125 C 7.957031 -2.28125 8.101562 -2.21875 8.21875 -2.09375 C 8.34375 -1.976562 8.40625 -1.832031 8.40625 -1.65625 C 8.40625 -1.507812 8.320312 -1.320312 8.15625 -1.09375 C 7.988281 -0.875 7.753906 -0.664062 7.453125 -0.46875 C 7.148438 -0.269531 6.773438 -0.0976562 6.328125 0.046875 C 5.890625 0.191406 5.382812 0.265625 4.8125 0.265625 Z M 7.171875 -4.90625 L 7.171875 -5.34375 C 7.171875 -5.644531 7.113281 -5.925781 7 -6.1875 C 6.882812 -6.457031 6.722656 -6.691406 6.515625 -6.890625 C 6.316406 -7.085938 6.070312 -7.242188 5.78125 -7.359375 C 5.488281 -7.472656 5.164062 -7.53125 4.8125 -7.53125 C 4.457031 -7.53125 4.132812 -7.472656 3.84375 -7.359375 C 3.550781 -7.242188 3.300781 -7.085938 3.09375 -6.890625 C 2.894531 -6.691406 2.738281 -6.457031 2.625 -6.1875 C 2.507812 -5.925781 2.453125 -5.644531 2.453125 -5.34375 L 2.453125 -4.90625 Z M 7.171875 -4.90625 "/></g></g></g><g fill="#7f44f8" fill-opacity="1"><g transform="translate(252.322788, 138.599416)"><g><path d="M 2.09375 0.09375 C 1.875 0.09375 1.703125 0.0195312 1.578125 -0.125 C 1.460938 -0.269531 1.40625 -0.429688 1.40625 -0.609375 L 1.40625 -7.875 C 1.40625 -8.050781 1.460938 -8.210938 1.578125 -8.359375 C 1.703125 -8.503906 1.875 -8.578125 2.09375 -8.578125 C 2.320312 -8.578125 2.492188 -8.503906 2.609375 -8.359375 C 2.734375 -8.210938 2.796875 -8.050781 2.796875 -7.875 L 2.796875 -7.703125 L 2.890625 -7.703125 C 3.046875 -7.898438 3.242188 -8.070312 3.484375 -8.21875 C 3.679688 -8.351562 3.929688 -8.472656 4.234375 -8.578125 C 4.546875 -8.691406 4.914062 -8.75 5.34375 -8.75 C 5.769531 -8.75 6.179688 -8.660156 6.578125 -8.484375 C 6.972656 -8.304688 7.316406 -8.070312 7.609375 -7.78125 C 7.898438 -7.488281 8.132812 -7.144531 8.3125 -6.75 C 8.488281 -6.351562 8.578125 -5.941406 8.578125 -5.515625 L 8.578125 -0.609375 C 8.578125 -0.429688 8.515625 -0.269531 8.390625 -0.125 C 8.265625 0.0195312 8.09375 0.09375 7.875 0.09375 C 7.65625 0.09375 7.484375 0.0195312 7.359375 -0.125 C 7.234375 -0.269531 7.171875 -0.429688 7.171875 -0.609375 L 7.171875 -5.515625 C 7.171875 -6.085938 6.972656 -6.566406 6.578125 -6.953125 C 6.179688 -7.335938 5.648438 -7.53125 4.984375 -7.53125 C 4.316406 -7.53125 3.785156 -7.335938 3.390625 -6.953125 C 2.992188 -6.566406 2.796875 -6.085938 2.796875 -5.515625 L 2.796875 -0.609375 C 2.796875 -0.429688 2.734375 -0.269531 2.609375 -0.125 C 2.492188 0.0195312 2.320312 0.09375 2.09375 0.09375 Z M 2.09375 0.09375 "/></g></g></g><g fill="#7f44f8" fill-opacity="1"><g transform="translate(263.657101, 138.599416)"><g><path d="M 4.546875 0 C 4.148438 0 3.785156 -0.0664062 3.453125 -0.203125 C 3.117188 -0.335938 2.832031 -0.523438 2.59375 -0.765625 C 2.351562 -1.003906 2.164062 -1.289062 2.03125 -1.625 C 1.90625 -1.957031 1.84375 -2.320312 1.84375 -2.71875 L 1.84375 -7.171875 L 0.96875 -7.171875 C 0.789062 -7.171875 0.640625 -7.226562 0.515625 -7.34375 C 0.398438 -7.46875 0.34375 -7.613281 0.34375 -7.78125 C 0.34375 -7.957031 0.398438 -8.101562 0.515625 -8.21875 C 0.640625 -8.34375 0.789062 -8.40625 0.96875 -8.40625 L 1.84375 -8.40625 L 1.84375 -10.0625 C 1.84375 -10.238281 1.898438 -10.398438 2.015625 -10.546875 C 2.140625 -10.691406 2.3125 -10.765625 2.53125 -10.765625 C 2.757812 -10.765625 2.929688 -10.691406 3.046875 -10.546875 C 3.171875 -10.398438 3.234375 -10.238281 3.234375 -10.0625 L 3.234375 -8.40625 L 5.6875 -8.40625 C 5.863281 -8.40625 6.007812 -8.34375 6.125 -8.21875 C 6.238281 -8.101562 6.296875 -7.957031 6.296875 -7.78125 C 6.296875 -7.613281 6.238281 -7.46875 6.125 -7.34375 C 6.007812 -7.226562 5.863281 -7.171875 5.6875 -7.171875 L 3.234375 -7.171875 L 3.234375 -2.71875 C 3.234375 -2.226562 3.351562 -1.851562 3.59375 -1.59375 C 3.832031 -1.34375 4.148438 -1.21875 4.546875 -1.21875 L 6.125 -1.21875 C 6.300781 -1.21875 6.445312 -1.160156 6.5625 -1.046875 C 6.675781 -0.929688 6.734375 -0.785156 6.734375 -0.609375 C 6.734375 -0.429688 6.675781 -0.285156 6.5625 -0.171875 C 6.445312 -0.0546875 6.300781 0 6.125 0 Z M 4.546875 0 "/></g></g></g><g fill="#7f44f8" fill-opacity="1"><g transform="translate(272.105615, 138.599416)"><g><path d="M 2.09375 0.09375 C 1.875 0.09375 1.703125 0.0195312 1.578125 -0.125 C 1.460938 -0.269531 1.40625 -0.429688 1.40625 -0.609375 L 1.40625 -7.875 C 1.40625 -8.050781 1.460938 -8.210938 1.578125 -8.359375 C 1.703125 -8.503906 1.875 -8.578125 2.09375 -8.578125 C 2.320312 -8.578125 2.492188 -8.503906 2.609375 -8.359375 C 2.734375 -8.210938 2.796875 -8.050781 2.796875 -7.875 L 2.796875 -0.609375 C 2.796875 -0.429688 2.734375 -0.269531 2.609375 -0.125 C 2.492188 0.0195312 2.320312 0.09375 2.09375 0.09375 Z M 2.09375 -10.59375 C 1.832031 -10.59375 1.617188 -10.679688 1.453125 -10.859375 C 1.296875 -11.035156 1.21875 -11.238281 1.21875 -11.46875 C 1.21875 -11.6875 1.296875 -11.882812 1.453125 -12.0625 C 1.617188 -12.25 1.832031 -12.34375 2.09375 -12.34375 C 2.363281 -12.34375 2.578125 -12.25 2.734375 -12.0625 C 2.890625 -11.882812 2.96875 -11.6875 2.96875 -11.46875 C 2.96875 -11.238281 2.890625 -11.035156 2.734375 -10.859375 C 2.578125 -10.679688 2.363281 -10.59375 2.09375 -10.59375 Z M 2.09375 -10.59375 "/></g></g></g><g fill="#7f44f8" fill-opacity="1"><g transform="translate(277.843222, 138.599416)"><g><path d="M 2.09375 0.09375 C 1.875 0.09375 1.703125 0.0195312 1.578125 -0.125 C 1.460938 -0.269531 1.40625 -0.429688 1.40625 -0.609375 L 1.40625 -7.875 C 1.40625 -8.050781 1.460938 -8.210938 1.578125 -8.359375 C 1.703125 -8.503906 1.875 -8.578125 2.09375 -8.578125 C 2.320312 -8.578125 2.492188 -8.503906 2.609375 -8.359375 C 2.734375 -8.210938 2.796875 -8.050781 2.796875 -7.875 L 2.796875 -7.703125 L 2.890625 -7.703125 C 3.046875 -7.898438 3.242188 -8.070312 3.484375 -8.21875 C 3.679688 -8.351562 3.929688 -8.472656 4.234375 -8.578125 C 4.546875 -8.691406 4.914062 -8.75 5.34375 -8.75 C 5.769531 -8.75 6.179688 -8.660156 6.578125 -8.484375 C 6.972656 -8.304688 7.316406 -8.070312 7.609375 -7.78125 C 7.898438 -7.488281 8.132812 -7.144531 8.3125 -6.75 C 8.488281 -6.351562 8.578125 -5.941406 8.578125 -5.515625 L 8.578125 -0.609375 C 8.578125 -0.429688 8.515625 -0.269531 8.390625 -0.125 C 8.265625 0.0195312 8.09375 0.09375 7.875 0.09375 C 7.65625 0.09375 7.484375 0.0195312 7.359375 -0.125 C 7.234375 -0.269531 7.171875 -0.429688 7.171875 -0.609375 L 7.171875 -5.515625 C 7.171875 -6.085938 6.972656 -6.566406 6.578125 -6.953125 C 6.179688 -7.335938 5.648438 -7.53125 4.984375 -7.53125 C 4.316406 -7.53125 3.785156 -7.335938 3.390625 -6.953125 C 2.992188 -6.566406 2.796875 -6.085938 2.796875 -5.515625 L 2.796875 -0.609375 C 2.796875 -0.429688 2.734375 -0.269531 2.609375 -0.125 C 2.492188 0.0195312 2.320312 0.09375 2.09375 0.09375 Z M 2.09375 0.09375 "/></g></g></g><g fill="#7f44f8" fill-opacity="1"><g transform="translate(289.177534, 138.599416)"><g><path d="M 3.671875 0.265625 C 3.234375 0.265625 2.835938 0.195312 2.484375 0.0625 C 2.128906 -0.0703125 1.820312 -0.253906 1.5625 -0.484375 C 1.3125 -0.722656 1.117188 -1 0.984375 -1.3125 C 0.847656 -1.632812 0.78125 -1.984375 0.78125 -2.359375 C 0.78125 -2.710938 0.851562 -3.046875 1 -3.359375 C 1.144531 -3.671875 1.359375 -3.945312 1.640625 -4.1875 C 1.921875 -4.4375 2.257812 -4.628906 2.65625 -4.765625 C 3.0625 -4.910156 3.519531 -4.984375 4.03125 -4.984375 L 6.5625 -4.984375 L 6.5625 -5.515625 C 6.5625 -6.085938 6.363281 -6.566406 5.96875 -6.953125 C 5.570312 -7.335938 5.039062 -7.53125 4.375 -7.53125 C 3.851562 -7.53125 3.445312 -7.425781 3.15625 -7.21875 C 2.875 -7.007812 2.664062 -6.820312 2.53125 -6.65625 C 2.40625 -6.476562 2.285156 -6.34375 2.171875 -6.25 C 2.066406 -6.164062 1.925781 -6.125 1.75 -6.125 C 1.570312 -6.125 1.425781 -6.179688 1.3125 -6.296875 C 1.195312 -6.410156 1.140625 -6.554688 1.140625 -6.734375 C 1.140625 -6.867188 1.164062 -6.992188 1.21875 -7.109375 C 1.25 -7.160156 1.28125 -7.210938 1.3125 -7.265625 C 1.382812 -7.367188 1.5 -7.503906 1.65625 -7.671875 C 1.820312 -7.835938 2.03125 -8 2.28125 -8.15625 C 2.539062 -8.320312 2.84375 -8.460938 3.1875 -8.578125 C 3.53125 -8.691406 3.925781 -8.75 4.375 -8.75 C 4.894531 -8.75 5.375 -8.660156 5.8125 -8.484375 C 6.25 -8.304688 6.628906 -8.070312 6.953125 -7.78125 C 7.273438 -7.488281 7.523438 -7.144531 7.703125 -6.75 C 7.878906 -6.351562 7.96875 -5.941406 7.96875 -5.515625 L 7.96875 -0.609375 C 7.96875 -0.429688 7.90625 -0.269531 7.78125 -0.125 C 7.65625 0.0195312 7.484375 0.09375 7.265625 0.09375 C 7.046875 0.09375 6.875 0.0195312 6.75 -0.125 C 6.625 -0.269531 6.5625 -0.429688 6.5625 -0.609375 L 6.5625 -0.703125 L 6.46875 -0.703125 C 6.25 -0.515625 6 -0.347656 5.71875 -0.203125 C 5.476562 -0.078125 5.1875 0.03125 4.84375 0.125 C 4.507812 0.21875 4.117188 0.265625 3.671875 0.265625 Z M 3.84375 -0.96875 C 4.332031 -0.96875 4.742188 -1.023438 5.078125 -1.140625 C 5.421875 -1.253906 5.707031 -1.378906 5.9375 -1.515625 C 6.1875 -1.679688 6.394531 -1.875 6.5625 -2.09375 L 6.5625 -3.765625 L 4.03125 -3.765625 C 3.40625 -3.765625 2.941406 -3.628906 2.640625 -3.359375 C 2.335938 -3.085938 2.1875 -2.753906 2.1875 -2.359375 C 2.1875 -1.960938 2.332031 -1.628906 2.625 -1.359375 C 2.914062 -1.097656 3.320312 -0.96875 3.84375 -0.96875 Z M 3.84375 -0.96875 "/></g></g></g></svg>