<svg xmlns="http://www.w3.org/2000/svg" xmlns:xlink="http://www.w3.org/1999/xlink" width="1080" zoomAndPan="magnify" viewBox="0 0 810 809.999993" height="1080" preserveAspectRatio="xMidYMid meet" version="1.0"><defs><clipPath id="64ea19fd43"><path d="M 8 22.695312 L 801 22.695312 L 801 786.945312 L 8 786.945312 Z M 8 22.695312 " clip-rule="nonzero"/></clipPath></defs><g clip-path="url(#64ea19fd43)"><path fill="#7f44f8" d="M 404.148438 298.582031 C 427.089844 298.582031 447.875 289.261719 462.9375 274.226562 C 478.019531 259.152344 487.363281 238.359375 487.363281 215.429688 C 487.363281 192.894531 478.335938 172.417969 463.6875 157.402344 L 462.976562 156.632812 C 447.933594 141.597656 427.109375 132.277344 404.128906 132.277344 C 381.542969 132.277344 361.035156 141.300781 346.050781 155.941406 L 345.300781 156.632812 C 330.257812 171.667969 320.933594 192.480469 320.933594 215.429688 C 320.933594 238.398438 330.257812 259.171875 345.300781 274.226562 L 345.359375 274.226562 C 360.421875 289.28125 381.207031 298.582031 404.148438 298.582031 Z M 363.3125 174.617188 L 363.886719 174.003906 C 374.277344 163.933594 388.492188 157.71875 404.167969 157.71875 C 420.121094 157.71875 434.570312 164.191406 445.023438 174.617188 L 445.65625 175.210938 C 455.730469 185.574219 461.945312 199.761719 461.945312 215.429688 C 461.945312 231.394531 455.492188 245.835938 445.082031 256.242188 C 434.632812 266.691406 420.179688 273.140625 404.1875 273.140625 C 388.214844 273.140625 373.765625 266.691406 363.332031 256.242188 C 352.882812 245.796875 346.429688 231.375 346.429688 215.429688 C 346.410156 199.503906 352.863281 185.0625 363.3125 174.617188 Z M 798.191406 767.695312 L 638.175781 503.757812 C 636.136719 499.464844 631.761719 496.519531 626.691406 496.519531 L 483.484375 496.539062 C 539.402344 398.234375 603.257812 278.855469 603.257812 221.679688 C 603.257812 166.742188 580.96875 116.984375 544.945312 80.980469 C 508.898438 44.972656 459.136719 22.695312 404.167969 22.695312 C 349.199219 22.695312 299.417969 44.972656 263.390625 80.980469 C 227.367188 116.984375 205.078125 166.722656 205.078125 221.679688 C 205.078125 279.074219 268.875 398.273438 324.8125 496.519531 L 181.640625 496.519531 L 181.640625 496.578125 C 177.367188 496.578125 173.191406 498.753906 170.816406 502.671875 L 10.78125 766.628906 C 9.195312 768.746094 8.246094 771.394531 8.246094 774.246094 C 8.246094 781.269531 13.945312 786.964844 20.972656 786.964844 L 787.34375 786.964844 L 787.34375 786.90625 C 789.578125 786.90625 791.855469 786.3125 793.894531 785.085938 C 799.890625 781.445312 801.792969 773.671875 798.191406 767.695312 Z M 287.859375 709.867188 L 279.839844 761.523438 L 245.140625 761.523438 L 252.585938 713.644531 C 253.652344 706.742188 248.921875 700.253906 241.996094 699.183594 C 241.339844 699.085938 240.6875 699.027344 240.054688 699.027344 L 240.054688 698.96875 L 81.40625 698.96875 L 102.269531 664.542969 L 249.339844 664.542969 C 256.089844 664.542969 261.609375 659.300781 262.027344 652.652344 L 282.355469 521.921875 L 317.054688 521.921875 L 297.160156 649.882812 C 296.09375 656.789062 300.824219 663.277344 307.75 664.34375 C 308.445312 664.445312 309.117188 664.503906 309.769531 664.503906 L 707.671875 667.273438 L 728.535156 701.695312 L 300.425781 699.027344 C 294.054688 699.027344 288.75 703.734375 287.859375 709.867188 Z M 468.953125 521.960938 L 619.585938 521.960938 L 692.269531 641.851562 L 324.496094 639.296875 L 342.015625 526.570312 L 353.316406 546.136719 C 369.410156 574.03125 383.445312 598.347656 393.003906 616.210938 C 393.261719 616.6875 393.539062 617.140625 393.855469 617.554688 C 393.933594 617.675781 394.035156 617.792969 394.113281 617.894531 C 394.390625 618.269531 394.707031 618.625 395.023438 618.960938 C 395.082031 619.019531 395.140625 619.097656 395.222656 619.160156 C 395.617188 619.554688 396.03125 619.910156 396.46875 620.246094 C 396.566406 620.324219 396.667969 620.386719 396.765625 620.464844 C 397.238281 620.800781 397.714844 621.117188 398.210938 621.375 C 398.210938 621.375 398.230469 621.375 398.230469 621.394531 C 398.605469 621.59375 398.980469 621.769531 399.378906 621.929688 C 399.617188 622.027344 399.832031 622.085938 400.070312 622.1875 C 400.230469 622.246094 400.367188 622.304688 400.527344 622.34375 C 400.804688 622.421875 401.078125 622.503906 401.378906 622.5625 C 401.496094 622.582031 401.613281 622.621094 401.734375 622.640625 C 402.011719 622.699219 402.269531 622.71875 402.542969 622.757812 C 402.683594 622.777344 402.820312 622.800781 402.960938 622.820312 C 403.199219 622.839844 403.414062 622.839844 403.652344 622.859375 C 403.832031 622.859375 404.03125 622.878906 404.207031 622.878906 C 404.386719 622.878906 404.582031 622.859375 404.761719 622.859375 C 405 622.839844 405.21875 622.839844 405.453125 622.820312 C 405.59375 622.800781 405.730469 622.777344 405.871094 622.757812 C 406.148438 622.71875 406.40625 622.679688 406.683594 622.640625 C 406.800781 622.621094 406.917969 622.582031 407.039062 622.5625 C 407.316406 622.503906 407.59375 622.441406 407.890625 622.34375 C 408.046875 622.304688 408.207031 622.226562 408.34375 622.1875 C 408.582031 622.105469 408.800781 622.027344 409.039062 621.949219 C 409.433594 621.789062 409.808594 621.613281 410.164062 621.414062 C 410.164062 621.414062 410.183594 621.414062 410.183594 621.394531 C 410.679688 621.117188 411.175781 620.820312 411.628906 620.484375 C 411.730469 620.40625 411.828125 620.347656 411.925781 620.265625 C 412.363281 619.929688 412.777344 619.574219 413.175781 619.179688 C 413.234375 619.121094 413.292969 619.039062 413.351562 618.980469 C 413.667969 618.644531 413.984375 618.289062 414.261719 617.914062 C 414.34375 617.792969 414.441406 617.695312 414.519531 617.574219 C 414.816406 617.140625 415.113281 616.707031 415.371094 616.210938 C 419.390625 608.691406 424.21875 599.988281 429.664062 590.375 C 429.839844 590.058594 430.019531 589.742188 430.195312 589.402344 C 430.554688 588.769531 430.910156 588.136719 431.265625 587.503906 C 431.742188 586.652344 432.214844 585.824219 432.710938 584.972656 C 432.789062 584.832031 432.871094 584.714844 432.929688 584.578125 C 433.679688 583.230469 434.453125 581.886719 435.246094 580.519531 C 435.679688 579.769531 436.117188 578.996094 436.550781 578.226562 C 436.96875 577.492188 437.382812 576.761719 437.816406 576.011719 C 443.101562 566.75 448.824219 556.859375 454.820312 546.453125 C 455.453125 545.34375 456.089844 544.238281 456.742188 543.128906 Z M 281.386719 98.960938 C 312.796875 67.566406 356.207031 48.136719 404.167969 48.136719 C 452.128906 48.136719 495.539062 67.566406 526.949219 98.960938 C 558.363281 130.359375 577.800781 173.746094 577.800781 221.679688 C 577.800781 276.402344 507.613281 403.59375 450.941406 502.414062 C 450.824219 502.59375 450.703125 502.75 450.585938 502.929688 L 432.988281 533.59375 C 427.605469 542.953125 422.4375 551.914062 417.589844 560.359375 C 412.777344 568.769531 408.265625 576.664062 404.167969 583.964844 C 395.914062 569.265625 386.035156 552.152344 375.230469 533.433594 C 375.109375 533.238281 374.992188 533.039062 374.871094 532.820312 L 358.007812 503.484375 C 357.730469 502.949219 357.433594 502.453125 357.097656 501.960938 C 300.464844 403.238281 230.515625 276.5625 230.515625 221.679688 C 230.535156 173.746094 249.972656 130.359375 281.386719 98.960938 Z M 188.730469 521.960938 L 256.703125 521.960938 L 238.492188 639.140625 L 117.6875 639.140625 Z M 65.984375 724.429688 L 225.230469 724.429688 L 219.46875 761.523438 L 43.5 761.523438 Z M 305.496094 761.523438 L 311.253906 724.449219 L 743.972656 727.140625 L 764.816406 761.523438 Z M 305.496094 761.523438 " fill-opacity="1" fill-rule="nonzero"/></g></svg>